<svg width="41" height="41" viewBox="0 0 41 41" fill="none" xmlns="http://www.w3.org/2000/svg">
<path d="M20.443 1.7C24.15 1.7004 27.7735 2.79999 30.8555 4.85974C33.9375 6.91949 36.3396 9.84688 37.7579 13.2718C39.1762 16.6966 39.5471 20.4652 38.8236 24.1008C38.1002 27.7365 36.3149 31.076 33.6936 33.697C31.0723 36.3181 27.7326 38.103 24.0969 38.826C20.4611 39.549 16.6926 39.1778 13.2679 37.7591C9.84319 36.3404 6.91605 33.9381 4.85663 30.8558C2.79721 27.7736 1.698 24.1499 1.698 20.443C1.70382 15.4735 3.68069 10.7092 7.19485 7.19542C10.709 3.68163 15.4735 1.70529 20.443 1.7V1.7ZM20.443 2.44708e-08C16.3999 -0.000197759 12.4476 1.19853 9.08578 3.44461C5.72398 5.69069 3.10373 8.88322 1.55637 12.6185C0.00900578 16.3538 -0.395977 20.464 0.392669 24.4294C1.18132 28.3948 3.12814 32.0374 5.98697 34.8963C8.84579 37.7553 12.4882 39.7023 16.4536 40.4911C20.419 41.28 24.5292 40.8752 28.2646 39.328C31.9999 37.7809 35.1926 35.1608 37.4388 31.7991C39.6851 28.4374 40.884 24.4851 40.884 20.442C40.884 15.0206 38.7304 9.82127 34.897 5.98768C31.0636 2.15409 25.8644 0.000265232 20.443 2.44708e-08V2.44708e-08Z" fill="#3d3e45"/>
<path d="M20.435 13.6236C19.8889 13.6251 19.3427 13.6265 18.7967 13.6265H12.4271C11.9594 13.6265 11.9087 13.732 12.1165 14.1152C12.2664 14.3944 12.4785 14.4775 12.7897 14.4754C14.0107 14.4682 15.2317 14.4693 16.4527 14.4704C16.8967 14.4708 17.3407 14.4712 17.7847 14.4712C17.8933 14.4712 18.0019 14.4719 18.1105 14.4754C18.2777 14.481 18.3501 14.5606 18.3204 14.7246C18.2346 15.1871 18.1496 15.6497 18.0645 16.1123C17.9794 16.575 17.8944 17.0376 17.8086 17.5001C17.7702 17.7053 17.6153 17.7388 17.4293 17.7388C17.3961 17.7388 17.3629 17.7389 17.3297 17.7389C16.747 17.7392 16.1655 17.7395 15.5833 17.6411C15.2826 17.5915 14.9788 17.5587 14.6749 17.5258C14.4872 17.5055 14.2994 17.4853 14.1123 17.461C13.7641 17.4156 13.6411 17.5552 13.6411 17.8896C13.6483 21.4502 13.6483 25.0103 13.6411 28.57C13.6403 28.8904 13.7706 29.0035 14.0928 28.9986C14.5667 28.993 15.0413 28.9949 15.5158 28.9967C15.7531 28.9977 15.9904 28.9986 16.2276 28.9986C16.8842 28.9986 16.89 28.993 16.895 28.3543C16.8986 27.8964 16.9001 27.8929 17.3858 27.8929C19.2796 27.8896 21.1736 27.8896 23.0678 27.8929C23.1584 27.8931 23.2389 27.8918 23.3105 27.8907C23.8488 27.882 23.8775 27.8816 23.8481 28.6056C23.8366 28.8862 23.9712 29 24.2608 29C25.0687 28.9923 25.8773 28.9937 26.6851 29C26.9421 29 27.0565 28.9065 27.0565 28.651V23.5216C27.0565 23.2584 26.9609 23.1691 26.709 23.3324C25.9245 23.8327 25.0754 24.2316 24.1833 24.5191C23.9524 24.5959 23.8351 24.739 23.8438 24.9903C23.8547 25.2895 23.8526 25.5887 23.8505 25.8879C23.8497 26.0076 23.8489 26.1272 23.8489 26.2468C23.8463 26.7616 23.8826 26.9866 23.7839 27.0827C23.6848 27.1792 23.4497 27.1459 22.9027 27.1459C22.0983 27.148 21.293 27.1474 20.4872 27.1468C19.4125 27.146 18.3369 27.1452 17.2613 27.1508C16.8994 27.1522 16.8994 26.9421 16.8994 26.6929V19.0512C16.8994 18.6079 16.9153 18.5933 17.3612 18.5933C17.9026 18.5933 18.444 18.5938 18.9854 18.5943C20.447 18.5957 21.9085 18.597 23.3696 18.5884C23.7142 18.5863 23.8923 18.6526 23.859 19.0282C23.8351 19.292 23.9647 19.3905 24.2427 19.2508C25.0303 18.8585 25.8794 18.6359 26.7423 18.4634C26.9863 18.4146 27.063 18.2945 27.0587 18.0816C27.0543 17.8687 26.9501 17.7668 26.7329 17.7416C26.4312 17.7067 26.1299 17.6693 25.8286 17.632C25.4005 17.5788 24.9725 17.5257 24.5438 17.4799C24.5085 17.476 24.4727 17.471 24.4366 17.4659C24.2041 17.4333 23.9626 17.3995 23.8047 17.6732C23.7638 17.7443 23.6653 17.7418 23.5778 17.7396C23.563 17.7392 23.5485 17.7388 23.5347 17.7388C23.1645 17.7388 22.7944 17.7384 22.4243 17.7379C21.6843 17.737 20.9445 17.736 20.2047 17.7388C19.9441 17.7395 19.8768 17.6795 20.0303 17.4408C20.5997 16.55 21.1624 15.6556 21.7184 14.7574C21.8516 14.5424 22.021 14.467 22.2802 14.467C23.7725 14.4737 25.2648 14.4728 26.7571 14.4719C27.2795 14.4715 27.8018 14.4712 28.3241 14.4712C28.3485 14.4712 28.374 14.4721 28.4 14.4729C28.5594 14.4783 28.7376 14.4842 28.7874 14.2988C28.8364 14.1161 28.6803 14.0401 28.5395 13.9714C28.5141 13.959 28.4891 13.9469 28.4659 13.9344C28.2144 13.7979 27.9609 13.6643 27.7074 13.5308C27.4422 13.391 27.1771 13.2514 26.9146 13.1086C26.6417 12.9592 26.4021 12.9522 26.1552 13.1616C25.7194 13.5365 25.2105 13.6461 24.6227 13.637C23.2272 13.6159 21.831 13.6198 20.435 13.6236Z" fill="#3d3e45"/>
<path d="M27.9708 21.4197L27.354 21.2843C27.3676 21.2511 27.3919 21.223 27.4233 21.2041C27.4547 21.1853 27.4916 21.1767 27.5285 21.1796C28.7765 20.9869 29.7169 20.3768 30.3047 19.285C30.4777 18.9632 30.427 18.8725 30.0549 18.8578C29.3083 18.8241 28.5601 18.8558 27.8195 18.9528C26.0249 19.1985 24.3324 19.736 22.7753 20.6553C20.3879 22.0647 18.6881 24.0514 17.4756 26.4556C17.4707 26.4659 17.4653 26.4764 17.4599 26.4872C17.4159 26.574 17.3661 26.6727 17.4756 26.7348C17.5617 26.7842 17.6193 26.7151 17.6733 26.6503C17.6842 26.6372 17.695 26.6243 17.7058 26.6126C17.8557 26.458 18.0074 26.305 18.1592 26.1519C18.5151 25.7927 18.8711 25.4336 19.2036 25.0552C19.5069 24.7076 19.85 24.6413 20.2894 24.6902C21.6938 24.843 22.9867 24.4654 24.2173 23.8525C24.4845 23.7171 24.4722 23.5733 24.2021 23.4336C24.1529 23.4077 24.0986 23.3871 24.045 23.3667C23.9963 23.3482 23.9481 23.3299 23.9046 23.308C23.8769 23.294 23.8453 23.286 23.8131 23.2777C23.739 23.2589 23.6618 23.2392 23.623 23.1453C24.4794 23.2466 25.2989 23.1802 26.0952 22.901C26.8241 22.6448 27.5039 22.2972 28.0866 21.7932C28.0951 21.7858 28.104 21.7785 28.1129 21.771C28.1857 21.7105 28.2655 21.6441 28.2191 21.5328C28.1855 21.4521 28.1076 21.4409 28.0315 21.43C28.0108 21.427 27.9903 21.4241 27.9708 21.4197Z" fill="#3d3e45"/>
</svg>
