<svg width="41" height="41" viewBox="0 0 41 41" fill="none" xmlns="http://www.w3.org/2000/svg">
<path d="M20.443 1.7C24.15 1.7004 27.7735 2.79999 30.8555 4.85974C33.9375 6.91949 36.3396 9.84688 37.7579 13.2718C39.1762 16.6966 39.5471 20.4652 38.8236 24.1008C38.1002 27.7365 36.3149 31.076 33.6936 33.697C31.0723 36.3181 27.7326 38.103 24.0969 38.826C20.4611 39.549 16.6926 39.1778 13.2679 37.7591C9.84319 36.3404 6.91605 33.9381 4.85663 30.8558C2.79721 27.7736 1.698 24.1499 1.698 20.443C1.70382 15.4735 3.68069 10.7092 7.19485 7.19542C10.709 3.68163 15.4735 1.70529 20.443 1.7V1.7ZM20.443 2.44708e-08C16.3999 -0.000197759 12.4476 1.19853 9.08578 3.44461C5.72398 5.69069 3.10373 8.88322 1.55637 12.6185C0.00900578 16.3538 -0.395977 20.464 0.392669 24.4294C1.18132 28.3948 3.12814 32.0374 5.98697 34.8963C8.84579 37.7553 12.4882 39.7023 16.4536 40.4911C20.419 41.28 24.5292 40.8752 28.2646 39.328C31.9999 37.7809 35.1926 35.1608 37.4388 31.7991C39.6851 28.4374 40.884 24.4851 40.884 20.442C40.884 15.0206 38.7304 9.82127 34.897 5.98768C31.0636 2.15409 25.8644 0.000265232 20.443 2.44708e-08V2.44708e-08Z" fill="#97999D"/>
<g clip-path="url(#clip0_1038_3674)">
<path d="M29.8432 17.229C29.8432 16.6306 29.7633 16.0328 29.5025 15.4844C28.9469 14.317 28.1013 13.5912 26.7362 13.6284C25.7847 13.6533 24.8331 13.6341 23.8816 13.6284C23.7808 13.6284 23.638 13.677 23.5892 13.5708C23.5258 13.4376 23.6831 13.3743 23.7579 13.2975C24.1569 12.8853 24.5642 12.4821 24.9632 12.0719C25.0545 11.9886 25.1171 11.8781 25.142 11.7565C25.1669 11.6348 25.1527 11.5084 25.1015 11.3954C24.9924 11.1311 24.7767 11.0114 24.4988 11.0056C24.28 10.9992 24.1182 11.1164 23.9749 11.2616C23.4002 11.8428 22.7906 12.3938 22.2583 13.0114C21.8371 13.5004 21.3607 13.6053 20.7442 13.6559C19.6785 13.7442 18.8836 13.4389 18.2245 12.5864C17.8255 12.07 17.3149 11.636 16.829 11.1944C16.5213 10.9141 16.1604 10.9423 15.9206 11.2008C15.6808 11.4594 15.7037 11.862 15.984 12.15C16.3145 12.4988 16.6571 12.8316 16.9901 13.1759C17.1125 13.3039 17.2616 13.4056 17.3415 13.574C17.2255 13.6706 17.1043 13.6322 16.9939 13.6322C15.9688 13.636 14.9437 13.6444 13.9186 13.6322C13.1752 13.6226 12.5586 13.9068 12.0416 14.4188C11.3241 15.126 11.0108 16.0175 11.0063 17.0159C10.9949 19.4684 11.0063 21.9202 11 24.3759C11.0001 24.685 11.0264 24.9935 11.0787 25.2981C11.3051 26.6517 12.2205 27.6719 13.4302 27.9324C13.7347 27.9964 14.0417 27.9746 14.3468 27.9695C14.5733 27.9656 14.6862 28.0488 14.754 28.2735C14.8098 28.4815 14.9314 28.6654 15.1003 28.7973C15.2692 28.9293 15.4761 29.002 15.6897 29.0044C16.1604 29.0204 16.6051 28.774 16.7332 28.3285C16.829 27.9944 17.0148 27.9688 17.2908 27.9701C19.3943 27.9765 21.4975 27.9765 23.6006 27.9701C23.9038 27.9701 24.0814 28.0341 24.1823 28.3541C24.3181 28.7887 24.6828 29.0056 25.1338 29.0056C25.5734 29.0056 25.9699 28.7708 26.0917 28.356C26.1887 28.0258 26.3721 27.949 26.6734 27.972C27.2589 28.0162 27.8152 27.8991 28.3043 27.5656C29.37 26.8418 29.8191 25.7692 29.8362 24.5282C29.8711 22.0911 29.854 19.6597 29.8432 17.229ZM27.571 25.236C27.401 25.7564 27.0204 26.0431 26.4805 26.0437C22.4423 26.0437 18.4036 26.0437 14.3646 26.0437C13.7302 26.0437 13.3135 25.677 13.2031 25.0434C13.1813 24.9166 13.1707 24.7881 13.1714 24.6594C13.1714 22.0567 13.1714 19.4541 13.1714 16.8514C13.1714 16.2114 13.4574 15.773 13.9649 15.6008C14.1182 15.559 14.2772 15.543 14.4356 15.5535H26.2014C27.2195 15.5535 27.6807 16.0156 27.6852 17.0568C27.6909 18.2511 27.6852 19.4453 27.6852 20.6408C27.6852 21.9208 27.6852 23.2008 27.6852 24.4808C27.6879 24.7372 27.6493 24.9922 27.571 25.236V25.236Z" fill="#97999D"/>
<path d="M18.5709 19.5439C18.5138 19.2194 18.4542 18.8956 18.399 18.5705C18.3514 18.2889 18.1998 18.2063 17.9251 18.2716C17.5356 18.3637 17.1398 18.4284 16.7465 18.5052C16.0437 18.6415 15.3414 18.7797 14.6373 18.9122C14.4274 18.9513 14.3531 19.0562 14.4039 19.2706C14.48 19.5906 14.5466 19.9145 14.6069 20.2389C14.6399 20.4175 14.7141 20.5039 14.9076 20.461C15.1854 20.397 15.4664 20.3509 15.7455 20.2959C16.6139 20.1257 17.4824 19.9529 18.3514 19.7839C18.4929 19.7589 18.5988 19.7193 18.5709 19.5439Z" fill="#97999D"/>
<path d="M26.1443 18.8847C25.5423 18.7823 24.9441 18.653 24.3441 18.5378C23.8366 18.4406 23.3291 18.3458 22.7867 18.2473C22.6599 18.2338 22.585 18.3362 22.5571 18.47C22.4842 18.8239 22.422 19.1798 22.3573 19.5356C22.3319 19.677 22.389 19.7526 22.5336 19.7801C23.6831 20.0015 24.8325 20.2236 25.98 20.454C26.1982 20.4975 26.2636 20.3945 26.2972 20.2102C26.3473 19.9164 26.3911 19.6201 26.4647 19.3321C26.5383 19.0441 26.4203 18.9321 26.1443 18.8847Z" fill="#97999D"/>
<path d="M22.6611 22.8623C22.3947 22.6741 22.2266 22.678 21.9964 22.9263C21.5923 23.3609 21.2656 23.3231 20.8951 22.8482C20.7833 22.7067 20.6822 22.557 20.5926 22.4002C20.4657 22.1743 20.3578 22.1557 20.2221 22.3957C20.1263 22.5608 20.0179 22.718 19.8979 22.8661C19.5402 23.3199 19.2262 23.3385 18.8094 22.941C18.4922 22.6383 18.3901 22.6415 18.0533 22.9359C17.9435 23.0319 17.9201 23.1177 18.0146 23.2322C18.6045 23.9484 19.3093 24.3369 20.2069 23.6956C20.3845 23.5676 20.5006 23.5945 20.6509 23.7173C20.8898 23.9177 21.193 24.0231 21.5035 24.0137C22.0249 23.9893 22.4068 23.7173 22.7354 23.3276C22.9092 23.1209 22.8825 23.0185 22.6611 22.8623Z" fill="#97999D"/>
</g>
<defs>
<clipPath id="clip0_1038_3674">
<rect width="18.8571" height="18" fill="white" transform="translate(11 11)"/>
</clipPath>
</defs>
</svg>
