<svg width="41" height="41" viewBox="0 0 41 41" fill="none" xmlns="http://www.w3.org/2000/svg">
<path d="M20.443 1.7C24.15 1.7004 27.7735 2.79999 30.8555 4.85974C33.9375 6.91949 36.3396 9.84688 37.7579 13.2718C39.1762 16.6966 39.5471 20.4652 38.8236 24.1008C38.1002 27.7365 36.3149 31.076 33.6936 33.697C31.0723 36.3181 27.7326 38.103 24.0969 38.826C20.4611 39.549 16.6926 39.1778 13.2679 37.7591C9.84319 36.3404 6.91605 33.9381 4.85663 30.8558C2.79721 27.7736 1.698 24.1499 1.698 20.443C1.70382 15.4735 3.68069 10.7092 7.19485 7.19542C10.709 3.68163 15.4735 1.70529 20.443 1.7V1.7ZM20.443 2.44708e-08C16.3999 -0.000197759 12.4476 1.19853 9.08578 3.44461C5.72398 5.69069 3.10373 8.88322 1.55637 12.6185C0.00900578 16.3538 -0.395977 20.464 0.392669 24.4294C1.18132 28.3948 3.12814 32.0374 5.98697 34.8963C8.84579 37.7553 12.4882 39.7023 16.4536 40.4911C20.419 41.28 24.5292 40.8752 28.2646 39.328C31.9999 37.7809 35.1926 35.1608 37.4388 31.7991C39.6851 28.4374 40.884 24.4851 40.884 20.442C40.884 15.0206 38.7304 9.82127 34.897 5.98768C31.0636 2.15409 25.8644 0.000265232 20.443 2.44708e-08V2.44708e-08Z" fill="#97999D"/>
<path d="M16.0211 19.9059C16.298 19.9807 16.6131 20.0657 16.9229 20.1682L16.926 20.1651C17.8944 20.4794 18.5246 20.8233 18.9104 21.2402C19.3319 21.6959 19.4787 22.2619 19.3596 22.9695C19.2009 23.9174 18.5278 25 16.2879 25C16.1143 25 15.9307 24.9932 15.737 24.9795C14.144 24.8669 13.2844 24.2316 12.8431 23.7181C12.7689 23.633 12.714 23.5341 12.6819 23.4276C12.6498 23.3211 12.6412 23.2094 12.6566 23.0995C12.6715 22.9931 12.7111 22.8913 12.7725 22.8015C12.8339 22.7117 12.9155 22.6362 13.0114 22.5807L13.1272 22.513C13.1759 22.4857 13.23 22.4683 13.286 22.462C13.342 22.4557 13.3987 22.4607 13.4527 22.4765C13.5639 22.5097 13.6571 22.5835 13.7122 22.6819C13.9194 23.0584 14.4655 23.7043 15.795 23.7979C17.0713 23.8885 17.865 23.5362 17.9706 22.8553C18.0762 22.1744 18.0341 21.7294 16.5609 21.2866C16.2546 21.1945 15.9752 21.1123 15.6989 21.0363C14.6814 20.7609 13.29 20.3835 13.3693 19.0704C13.4027 18.5378 13.7741 17.9809 14.3639 17.5823C15.0072 17.153 15.7859 16.9508 16.5673 17.0102C17.3631 17.0684 18.1128 17.3913 18.6865 17.9231C18.7726 18.0005 18.841 18.0941 18.8875 18.198C18.9339 18.302 18.9574 18.4141 18.9564 18.5272C18.955 18.6356 18.9284 18.7423 18.8784 18.8396C18.8284 18.9369 18.7563 19.0223 18.6675 19.0894L18.5881 19.1472C18.5436 19.1801 18.4922 19.2036 18.4375 19.2161C18.3828 19.2285 18.3259 19.2297 18.2706 19.2195C18.1571 19.1991 18.0565 19.1368 17.9904 19.046C17.7452 18.709 17.2173 18.1346 16.4339 18.0791C15.3545 18.003 14.7163 18.6101 14.6877 19.0589C14.6742 19.2811 14.81 19.5778 16.0006 19.9004L16.0211 19.9059Z" fill="#97999D"/>
<path d="M11.3469 22.9071C11.4596 22.9062 11.5682 22.9471 11.6501 23.0213L11.7112 23.0737C11.7989 23.1524 11.8681 23.2481 11.9144 23.3543C11.9606 23.4605 11.9828 23.5749 11.9795 23.69C11.9765 23.8005 11.947 23.9089 11.8934 24.0068C11.8397 24.1047 11.7632 24.1894 11.6699 24.2545C11.1826 24.5915 10.3047 24.994 8.88791 24.994C7.67985 24.994 6.68133 24.6555 6.00031 24.0141C5.36612 23.4177 5.02085 22.5694 5.001 21.5606C4.9764 20.306 5.4058 19.1435 6.20827 18.2892C6.97105 17.4759 8.01639 17.0095 9.07365 17.0095C9.85948 17.002 10.6227 17.2616 11.2278 17.7421C11.4003 17.877 11.5115 18.0705 11.5382 18.2823C11.5512 18.3826 11.5424 18.4844 11.5124 18.5813C11.4823 18.6782 11.4317 18.7681 11.3636 18.8453L11.2969 18.9214C11.2605 18.9629 11.2149 18.9961 11.1634 19.0185C11.1119 19.0409 11.0558 19.0519 10.9992 19.0507C10.9407 19.05 10.8828 19.0381 10.8292 19.0154C10.7756 18.9928 10.7273 18.96 10.6873 18.9191C10.4516 18.6794 9.81499 18.121 8.99348 18.121C7.27584 18.121 6.28288 19.8602 6.31542 21.5408C6.32892 22.2666 6.54164 22.8273 6.94644 23.2077C7.37426 23.6086 8.0148 23.8117 8.8514 23.8117C9.30303 23.8117 10.4214 23.7356 11.0635 23.0319C11.0988 22.9931 11.1424 22.9619 11.1912 22.9403C11.2401 22.9188 11.2931 22.9075 11.3469 22.9071Z" fill="#97999D"/>
<path fill-rule="evenodd" clip-rule="evenodd" d="M26.2366 17.6888C25.4635 17.1563 24.438 16.9334 23.1886 17.0308C22.6028 17.0776 22.0243 17.1871 21.4639 17.3571H21.4567C21.3513 17.3904 21.2586 17.4528 21.1901 17.5365C21.1216 17.6201 21.0804 17.7213 21.0718 17.8273L20.4646 24.2659C20.4575 24.362 20.4852 24.4576 20.543 24.5364C20.6009 24.6153 20.6853 24.6726 20.782 24.6988L20.9606 24.7459C21.6013 24.8905 22.2554 24.9731 22.9132 24.9924C23.0069 24.9955 23.099 24.997 23.1894 24.997C24.4451 24.997 25.469 24.7125 26.2382 24.151C27.2256 23.4282 27.7113 22.2932 27.682 20.7761C27.6558 19.3717 27.1684 18.3325 26.235 17.6866L26.2366 17.6888ZM26.3675 20.7525C26.389 21.8869 26.0564 22.7131 25.3793 23.2091C24.2999 24.0004 22.6807 23.906 21.9218 23.8056C21.8803 23.7997 21.8427 23.7789 21.8166 23.7474C21.7905 23.7159 21.7779 23.676 21.7814 23.6359L22.2933 18.3758C22.2961 18.3466 22.3082 18.319 22.3282 18.2968C22.3481 18.2745 22.3747 18.2588 22.4044 18.2518C23.6958 17.9528 24.6999 18.0441 25.3905 18.5219C25.9834 18.932 26.3485 19.7666 26.3675 20.7525Z" fill="#97999D"/>
<path d="M33.0158 17.0444C34.0722 17.0444 34.8755 17.3313 35.4025 17.898H35.4002C36.1034 18.6543 35.9962 19.6136 35.9915 19.654L35.5494 24.4621C35.5368 24.5992 35.4709 24.7268 35.3647 24.8194C35.2585 24.912 35.1199 24.9629 34.9763 24.962H34.5842C34.5393 24.9615 34.495 24.9522 34.454 24.9347C34.4129 24.9172 34.3761 24.8919 34.3456 24.8603C34.3152 24.8286 34.2918 24.7914 34.2768 24.7508C34.2619 24.7102 34.2557 24.6672 34.2588 24.6242L34.7207 19.498C34.7215 19.4911 34.7652 19.008 34.4429 18.6657C34.2048 18.4139 33.669 18.1187 32.9348 18.1187C31.3212 18.1187 30.6092 19.5421 30.3282 20.3904C30.2739 20.5562 30.2383 20.7271 30.2218 20.9001L29.8512 24.7079C29.8446 24.7776 29.8109 24.8423 29.7568 24.8893C29.7026 24.9362 29.6321 24.9619 29.5591 24.9612H29.0598C29.0001 24.9612 28.9411 24.9492 28.8864 24.9262C28.8318 24.9031 28.7827 24.8695 28.7423 24.8273C28.7019 24.786 28.6709 24.7371 28.6512 24.6836C28.6315 24.6302 28.6236 24.5734 28.628 24.5169L29.1836 18.1217C29.1985 17.9386 29.2854 17.7676 29.4267 17.6435C29.568 17.5194 29.7532 17.4513 29.9448 17.453H30.1996C30.2447 17.4534 30.2891 17.4626 30.3303 17.4802C30.3714 17.4978 30.4084 17.5232 30.4388 17.5551C30.4693 17.5869 30.4926 17.6244 30.5073 17.6652C30.5219 17.706 30.5277 17.7492 30.5243 17.7923L30.5012 18.0334C31.1702 17.3983 32.0742 17.0428 33.0158 17.0444Z" fill="#97999D"/>
</svg>
