<svg width="41" height="41" viewBox="0 0 41 41" fill="none" xmlns="http://www.w3.org/2000/svg">
<path d="M20.443 1.7C24.15 1.7004 27.7735 2.79999 30.8555 4.85974C33.9375 6.91949 36.3396 9.84688 37.7579 13.2718C39.1762 16.6966 39.5471 20.4652 38.8236 24.1008C38.1002 27.7365 36.3149 31.076 33.6936 33.697C31.0723 36.3181 27.7326 38.103 24.0969 38.826C20.4611 39.549 16.6926 39.1778 13.2679 37.7591C9.84319 36.3404 6.91605 33.9381 4.85663 30.8558C2.79721 27.7736 1.698 24.1499 1.698 20.443C1.70382 15.4735 3.68069 10.7092 7.19485 7.19542C10.709 3.68163 15.4735 1.70529 20.443 1.7V1.7ZM20.443 2.44708e-08C16.3999 -0.000197759 12.4476 1.19853 9.08578 3.44461C5.72398 5.69069 3.10373 8.88322 1.55637 12.6185C0.00900578 16.3538 -0.395977 20.464 0.392669 24.4294C1.18132 28.3948 3.12814 32.0374 5.98697 34.8963C8.84579 37.7553 12.4882 39.7023 16.4536 40.4911C20.419 41.28 24.5292 40.8752 28.2646 39.328C31.9999 37.7809 35.1926 35.1608 37.4388 31.7991C39.6851 28.4374 40.884 24.4851 40.884 20.442C40.884 15.0206 38.7304 9.82127 34.897 5.98768C31.0636 2.15409 25.8644 0.000265232 20.443 2.44708e-08V2.44708e-08Z" fill="#3d3e45"/>
<g clip-path="url(#clip0_1038_3689)">
<path d="M21.6743 15.4999C21.6743 13.3639 20.1375 11.6238 18.2516 11.6238H15V12.4461H16.7114C18.142 12.4461 19.3092 13.8109 19.3092 15.517C19.3092 17.223 18.142 18.5878 16.7114 18.5878H15V19.3794H18.2516C20.1375 19.3794 21.6743 17.6393 21.6743 15.4999Z" fill="#3d3e45"/>
<path d="M21.267 9H15V10.3648H18.765C21.1609 10.3648 23.1118 12.6612 23.1118 15.4829C23.1118 18.3047 21.1609 20.601 18.765 20.601H15V21.9659H21.267C24.4295 21.9659 27 19.0486 27 15.4625C27 11.8764 24.4295 9 21.267 9Z" fill="#3d3e45"/>
<path d="M15 13.5723H16.2767C16.7896 13.5723 17.2814 13.7754 17.6441 14.1369C18.0068 14.4984 18.2105 14.9888 18.2105 15.5001V15.5001C18.2105 16.0114 18.0068 16.5017 17.6441 16.8633C17.2814 17.2248 16.7896 17.4279 16.2767 17.4279H15V13.5723Z" fill="#3d3e45"/>
</g>
<path d="M23.7121 29.1375L23.5793 30H20.4074L21.2483 24.585H22.1335L21.4254 29.1375H23.7121Z" fill="#3d3e45"/>
<path fill-rule="evenodd" clip-rule="evenodd" d="M27.5174 29.205C27.4142 29.8725 27.1412 30 26.588 30H24.7955C24.2423 30 23.9989 29.8725 24.1021 29.205L24.2571 28.215C24.3603 27.5475 24.6406 27.42 25.1939 27.42H26.9126L26.9863 26.9625C27.0158 26.745 26.9716 26.7375 26.7872 26.7375H24.5669L24.707 25.875H27.2297C27.783 25.875 28.019 26.0025 27.9158 26.67L27.5174 29.205ZM26.4183 29.1375C26.6027 29.1375 26.647 29.13 26.6765 28.9125L26.7798 28.2825H25.3635C25.1791 28.2825 25.1348 28.29 25.098 28.5075L25.0316 28.9125C25.0021 29.13 25.0463 29.1375 25.2307 29.1375H26.4183Z" fill="#3d3e45"/>
<path d="M30.4718 27.9525L31.3939 30H30.435L29.7121 28.3875H29.3433L29.0925 30H28.2073L29.1367 24H30.0219L29.476 27.525H29.8301L31.1062 25.875H32.0652L30.4718 27.9525Z" fill="#3d3e45"/>
<path fill-rule="evenodd" clip-rule="evenodd" d="M35.2305 29.1375L35.0977 30H32.6561C32.1029 30 31.8595 29.8725 31.9627 29.205L32.3611 26.67C32.4643 26.0025 32.7446 25.875 33.2979 25.875H35.0903C35.6436 25.875 35.8796 26.0025 35.7764 26.67L35.6288 27.6075C35.5256 28.275 35.2452 28.4025 34.692 28.4025H32.9733L32.8922 28.9125C32.8627 29.13 32.9069 29.1375 33.0913 29.1375H35.2305ZM34.5224 27.54C34.7068 27.54 34.7584 27.5325 34.7879 27.315L34.8469 26.9625C34.8764 26.745 34.8322 26.7375 34.6478 26.7375H33.4602C33.2757 26.7375 33.2315 26.745 33.202 26.9625L33.1061 27.54H34.5224Z" fill="#3d3e45"/>
<path fill-rule="evenodd" clip-rule="evenodd" d="M10.9169 29.205C10.8136 29.8725 10.5407 30 9.98745 30H7L7.84091 24.585H10.8284C11.3816 24.585 11.6176 24.7125 11.5144 25.38L10.9169 29.205ZM9.81779 29.1375C10.0243 29.1375 10.0465 29.13 10.076 28.92L10.5849 25.6725C10.6144 25.455 10.5776 25.4475 10.3931 25.4475H8.5933L8.01794 29.1375H9.81779Z" fill="#3d3e45"/>
<path fill-rule="evenodd" clip-rule="evenodd" d="M15.0445 29.1375L14.9118 30H12.4702C11.917 30 11.6735 29.8725 11.7768 29.205L12.1751 26.67C12.2784 26.0025 12.5587 25.875 13.1119 25.875H14.9044C15.4576 25.875 15.6937 26.0025 15.5904 26.67L15.4429 27.6075C15.3396 28.275 15.0593 28.4025 14.5061 28.4025H12.7874L12.7062 28.9125C12.6767 29.13 12.721 29.1375 12.9054 29.1375H15.0445ZM14.3364 27.54C14.5208 27.54 14.5725 27.5325 14.602 27.315L14.661 26.9625C14.6905 26.745 14.6462 26.7375 14.4618 26.7375H13.2742C13.0898 26.7375 13.0455 26.745 13.016 26.9625L12.9201 27.54H14.3364Z" fill="#3d3e45"/>
<path d="M19.6444 25.875L17.7708 30H16.6644L16.0669 25.875H17.0037L17.3725 28.9875L18.7224 25.875H19.6444Z" fill="#3d3e45"/>
<defs>
<clipPath id="clip0_1038_3689">
<rect width="12" height="13" fill="white" transform="translate(15 9)"/>
</clipPath>
</defs>
</svg>
