<svg width="41" height="41" viewBox="0 0 41 41" fill="none" xmlns="http://www.w3.org/2000/svg">
<path d="M20.443 1.7C24.15 1.7004 27.7735 2.79999 30.8555 4.85974C33.9375 6.91949 36.3396 9.84688 37.7579 13.2718C39.1762 16.6966 39.5471 20.4652 38.8236 24.1008C38.1002 27.7365 36.3149 31.076 33.6936 33.697C31.0723 36.3181 27.7326 38.103 24.0969 38.826C20.4611 39.549 16.6926 39.1778 13.2679 37.7591C9.84319 36.3404 6.91605 33.9381 4.85663 30.8558C2.79721 27.7736 1.698 24.1499 1.698 20.443C1.70382 15.4735 3.68069 10.7092 7.19485 7.19542C10.709 3.68163 15.4735 1.70529 20.443 1.7V1.7ZM20.443 2.44708e-08C16.3999 -0.000197759 12.4476 1.19853 9.08578 3.44461C5.72398 5.69069 3.10373 8.88322 1.55637 12.6185C0.00900578 16.3538 -0.395977 20.464 0.392669 24.4294C1.18132 28.3948 3.12814 32.0374 5.98697 34.8963C8.84579 37.7553 12.4882 39.7023 16.4536 40.4911C20.419 41.28 24.5292 40.8752 28.2646 39.328C31.9999 37.7809 35.1926 35.1608 37.4388 31.7991C39.6851 28.4374 40.884 24.4851 40.884 20.442C40.884 15.0206 38.7304 9.82127 34.897 5.98768C31.0636 2.15409 25.8644 0.000265232 20.443 2.44708e-08V2.44708e-08Z" fill="#97999D"/>
<g clip-path="url(#clip0_1038_3698)">
<path d="M21.6743 15.4999C21.6743 13.3639 20.1375 11.6238 18.2516 11.6238H15V12.4461H16.7114C18.142 12.4461 19.3092 13.8109 19.3092 15.517C19.3092 17.223 18.142 18.5878 16.7114 18.5878H15V19.3794H18.2516C20.1375 19.3794 21.6743 17.6393 21.6743 15.4999Z" fill="#97999D"/>
<path d="M21.267 9H15V10.3648H18.765C21.1609 10.3648 23.1118 12.6612 23.1118 15.4829C23.1118 18.3047 21.1609 20.601 18.765 20.601H15V21.9659H21.267C24.4295 21.9659 27 19.0486 27 15.4625C27 11.8764 24.4295 9 21.267 9Z" fill="#97999D"/>
<path d="M15 13.5723H16.2767C16.7896 13.5723 17.2814 13.7754 17.6441 14.1369C18.0068 14.4984 18.2105 14.9888 18.2105 15.5001V15.5001C18.2105 16.0114 18.0068 16.5017 17.6441 16.8633C17.2814 17.2248 16.7896 17.4279 16.2767 17.4279H15V13.5723Z" fill="#97999D"/>
</g>
<path d="M19.1323 28.955C19.0471 29.4966 18.822 29.6 18.3656 29.6H16.6802C16.2238 29.6 16.023 29.4966 16.1082 28.955L16.2177 28.2918H16.9479L16.8749 28.7177C16.8505 28.8942 16.887 28.9003 17.0392 28.9003H18.2257C18.3778 28.9003 18.4143 28.8942 18.4386 28.7177L18.5664 27.9389C18.5907 27.7624 18.5542 27.7563 18.4021 27.7563H16.9601C16.5037 27.7563 16.309 27.6529 16.3942 27.1114L16.595 25.8519C16.6802 25.3103 16.9114 25.2069 17.3677 25.2069H19.0532C19.5095 25.2069 19.7042 25.3103 19.6191 25.8519L19.5156 26.5151H18.7855L18.8524 26.0892C18.8767 25.9127 18.8463 25.9066 18.6942 25.9066H17.5077C17.3556 25.9066 17.313 25.9127 17.2886 26.0892L17.1609 26.8741C17.1365 27.0505 17.173 27.0566 17.3251 27.0566H18.7672C19.2236 27.0566 19.4183 27.1601 19.3331 27.7016L19.1323 28.955Z" fill="#97999D"/>
<path d="M21.4831 28.9003L21.3736 29.6H20.7225C20.2662 29.6 20.0654 29.4966 20.1506 28.955L20.467 26.9532H19.9133L20.0289 26.2534H20.5826L20.7773 25H21.5074L21.3127 26.2534H21.9029L21.7873 26.9532H21.1971L20.9172 28.7177C20.8929 28.8942 20.9294 28.9003 21.0815 28.9003H21.4831Z" fill="#97999D"/>
<path d="M22.9593 27.1357L22.5699 29.6H21.8397L22.2656 26.8984C22.3508 26.3569 22.582 26.2534 23.0384 26.2534H24.4074L24.2918 26.9532H23.1723C23.0201 26.9532 22.9836 26.9593 22.9593 27.1357Z" fill="#97999D"/>
<path fill-rule="evenodd" clip-rule="evenodd" d="M27.0984 28.9003L26.9889 29.6H24.9748C24.5185 29.6 24.3177 29.4966 24.4029 28.955L24.7314 26.8984C24.8166 26.3569 25.0479 26.2534 25.5042 26.2534H26.9828C27.4391 26.2534 27.6338 26.3569 27.5486 26.8984L27.427 27.659C27.3418 28.2005 27.1105 28.304 26.6542 28.304H25.2365L25.1695 28.7177C25.1452 28.8942 25.1817 28.9003 25.3338 28.9003H27.0984ZM26.5143 27.6042C26.6664 27.6042 26.709 27.5981 26.7333 27.4217L26.782 27.1357C26.8063 26.9593 26.7698 26.9532 26.6177 26.9532H25.6381C25.4859 26.9532 25.4494 26.9593 25.4251 27.1357L25.346 27.6042H26.5143Z" fill="#97999D"/>
<path fill-rule="evenodd" clip-rule="evenodd" d="M30.5642 28.955C30.479 29.4966 30.2538 29.6 29.7975 29.6H28.3189C27.8626 29.6 27.6618 29.4966 27.747 28.955L27.8747 28.1519C27.9599 27.6103 28.1911 27.5069 28.6475 27.5069H30.0652L30.1261 27.1357C30.1504 26.9593 30.1139 26.9532 29.9618 26.9532H28.1303L28.2459 26.2534H30.3269C30.7832 26.2534 30.9779 26.3569 30.8927 26.8984L30.5642 28.955ZM29.6575 28.9003C29.8097 28.9003 29.8462 28.8942 29.8705 28.7177L29.9557 28.2066H28.7874C28.6353 28.2066 28.5988 28.2127 28.5684 28.3892L28.5136 28.7177C28.4893 28.8942 28.5258 28.9003 28.6779 28.9003H29.6575Z" fill="#97999D"/>
<path d="M36.2078 26.8984L35.7819 29.6H35.0517L35.4412 27.1357C35.4655 26.9593 35.429 26.9532 35.2769 26.9532H34.425C34.2729 26.9532 34.2364 26.9593 34.2121 27.1357L33.8226 29.6H33.0986L33.488 27.1357C33.5123 26.9593 33.4758 26.9532 33.3237 26.9532H32.4597C32.3076 26.9532 32.2711 26.9593 32.2467 27.1357L31.8573 29.6H31.1271L31.5531 26.8984C31.6382 26.3569 31.8695 26.2534 32.3258 26.2534H33.4758C33.707 26.2534 33.8713 26.2839 33.9443 26.4968C34.0904 26.2839 34.2607 26.2534 34.4919 26.2534H35.642C36.0983 26.2534 36.293 26.3569 36.2078 26.8984Z" fill="#97999D"/>
<path fill-rule="evenodd" clip-rule="evenodd" d="M8.23095 28.955C8.14577 29.4966 7.92064 29.6 7.46429 29.6H5L5.69365 25.2069H8.15794C8.61429 25.2069 8.80899 25.3103 8.72381 25.8519L8.23095 28.955ZM7.32434 28.9003C7.49471 28.9003 7.51296 28.8942 7.5373 28.7238L7.95714 26.0892C7.98148 25.9127 7.95106 25.9066 7.79894 25.9066H6.31429L5.83968 28.9003H7.32434Z" fill="#97999D"/>
<path fill-rule="evenodd" clip-rule="evenodd" d="M11.6358 28.9003L11.5263 29.6H9.51225C9.0559 29.6 8.8551 29.4966 8.94029 28.955L9.26886 26.8984C9.35405 26.3569 9.58526 26.2534 10.0416 26.2534H11.5202C11.9765 26.2534 12.1712 26.3569 12.0861 26.8984L11.9644 27.659C11.8792 28.2005 11.648 28.304 11.1916 28.304H9.77389L9.70696 28.7177C9.68262 28.8942 9.71913 28.9003 9.87124 28.9003H11.6358ZM11.0517 27.6042C11.2038 27.6042 11.2464 27.5981 11.2707 27.4217L11.3194 27.1357C11.3437 26.9593 11.3072 26.9532 11.1551 26.9532H10.1755C10.0234 26.9532 9.98685 26.9593 9.96251 27.1357L9.88341 27.6042H11.0517Z" fill="#97999D"/>
<path d="M15.4301 26.2534L13.8846 29.6H12.9719L12.4791 26.2534H13.2518L13.5561 28.7786L14.6696 26.2534H15.4301Z" fill="#97999D"/>
<defs>
<clipPath id="clip0_1038_3698">
<rect width="12" height="13" fill="white" transform="translate(15 9)"/>
</clipPath>
</defs>
</svg>
