<svg width="41" height="41" viewBox="0 0 41 41" fill="none" xmlns="http://www.w3.org/2000/svg">
<path d="M20.443 1.7C24.15 1.7004 27.7735 2.79999 30.8555 4.85974C33.9375 6.91949 36.3396 9.84688 37.7579 13.2718C39.1762 16.6966 39.5471 20.4652 38.8236 24.1008C38.1002 27.7365 36.3149 31.076 33.6936 33.697C31.0723 36.3181 27.7326 38.103 24.0969 38.826C20.4611 39.549 16.6926 39.1778 13.2679 37.7591C9.84319 36.3404 6.91605 33.9381 4.85663 30.8558C2.79721 27.7736 1.698 24.1499 1.698 20.443C1.70382 15.4735 3.68069 10.7092 7.19485 7.19542C10.709 3.68163 15.4735 1.70529 20.443 1.7V1.7ZM20.443 2.44708e-08C16.3999 -0.000197759 12.4476 1.19853 9.08578 3.44461C5.72398 5.69069 3.10373 8.88322 1.55637 12.6185C0.00900578 16.3538 -0.395977 20.464 0.392669 24.4294C1.18132 28.3948 3.12814 32.0374 5.98697 34.8963C8.84579 37.7553 12.4882 39.7023 16.4536 40.4911C20.419 41.28 24.5292 40.8752 28.2646 39.328C31.9999 37.7809 35.1926 35.1608 37.4388 31.7991C39.6851 28.4374 40.884 24.4851 40.884 20.442C40.884 15.0206 38.7304 9.82127 34.897 5.98768C31.0636 2.15409 25.8644 0.000265232 20.443 2.44708e-08V2.44708e-08Z" fill="#3d3e45"/>
<path d="M10.1566 16.5491C10.5699 16.5638 10.8611 16.7913 11.1504 17.0174C11.1838 17.0435 11.2173 17.0697 11.2509 17.0955C11.636 17.3927 11.5386 18.1882 11.0858 18.5373L11.0743 18.5461C10.9494 18.641 10.8439 18.7211 10.9208 18.9083C10.9233 18.9144 10.9258 18.9203 10.9281 18.9261C10.9507 18.9815 10.9671 19.0217 11.0308 19.0356C11.1931 19.069 11.3367 19.1447 11.4805 19.2206L11.4806 19.2206C11.5464 19.2553 11.6123 19.2901 11.68 19.3208C11.8974 19.4199 12.13 19.4606 12.3627 19.5013C12.4956 19.5245 12.6286 19.5478 12.7588 19.582C13.0834 19.6672 13.3002 19.8644 13.2639 20.1715C13.2243 20.5113 12.9635 20.6982 12.6152 20.6758C12.2291 20.6501 11.918 20.4584 11.61 20.2685C11.5573 20.236 11.5046 20.2036 11.4517 20.172C11.3908 20.1357 11.3294 20.0999 11.2679 20.0641C11.0171 19.9181 10.7649 19.7713 10.5417 19.5787C10.3734 19.4328 9.94814 19.5787 9.70662 19.7207C9.60058 19.7821 9.49585 19.8474 9.39096 19.9127L9.39088 19.9128C8.93588 20.1962 8.47803 20.4815 7.89774 20.4632C7.78754 20.4621 7.67927 20.4343 7.58227 20.3824C7.48528 20.3304 7.40247 20.2558 7.34099 20.1649C7.30858 20.1208 7.28968 20.0683 7.28656 20.0137C7.28343 19.9591 7.29622 19.9049 7.32339 19.8573C7.34356 19.8056 7.37999 19.7617 7.42726 19.7322C7.47454 19.7027 7.53013 19.6891 7.58581 19.6934C8.09414 19.7328 8.54911 19.553 9.00078 19.358C9.26981 19.2416 9.35728 18.7783 9.15097 18.5668C9.10609 18.5205 9.06179 18.4735 9.01747 18.4265L9.01736 18.4264C8.79007 18.1853 8.56246 17.9439 8.25589 17.7866C8.11175 17.7128 8.01602 17.5418 8.10679 17.3943C8.19757 17.2468 8.36481 17.267 8.52326 17.3479C8.78103 17.4817 9.02015 17.6483 9.2346 17.8434C9.4461 18.0386 9.67111 18.2188 9.90797 18.3827C10.0488 18.4761 10.1985 18.481 10.3481 18.3368C10.4958 18.2014 10.6157 18.0388 10.7013 17.8582C10.8025 17.6331 10.7315 17.4539 10.4972 17.3615C10.2524 17.2654 9.9949 17.2719 9.73853 17.2998C9.58504 17.3167 9.4453 17.2889 9.43265 17.1146C9.4211 16.96 9.43265 16.7944 9.59769 16.6944C9.62344 16.6786 9.66101 16.6733 9.69826 16.6681C9.77325 16.6575 9.84697 16.6471 9.8205 16.5518C9.77374 16.3808 9.65546 16.2169 9.4464 16.2043C9.27299 16.1869 9.09782 16.2037 8.93091 16.2535C8.57497 16.3732 8.25974 16.2999 7.97586 16.0453C7.91886 15.9933 7.87379 15.9296 7.8437 15.8587C7.81361 15.7878 7.79921 15.7114 7.80146 15.6345C7.78936 15.2165 7.78881 14.7974 7.80146 14.3778C7.80696 14.2101 7.82127 14.0112 8.04078 13.967C8.26028 13.9227 8.37417 14.0762 8.45724 14.2467C8.45878 14.25 8.46031 14.2532 8.46182 14.2564L8.46476 14.2627L8.46738 14.2684C8.50843 14.3569 8.54346 14.4324 8.68445 14.4041C8.74066 14.3932 8.80178 14.4118 8.86382 14.4306C8.90136 14.442 8.93924 14.4536 8.97658 14.4587C9.00798 14.462 9.04156 14.4629 9.07547 14.4638C9.2198 14.4675 9.3699 14.4714 9.38148 14.6652C9.39493 14.8902 9.19881 14.9515 9.02534 15.0057C9.01429 15.0091 9.00333 15.0126 8.99253 15.016C8.8888 15.0495 8.78122 15.0699 8.67235 15.0766C8.36387 15.0952 8.42417 15.3283 8.46488 15.4856L8.46494 15.4859C8.50565 15.6432 8.65804 15.6869 8.83849 15.6192C8.97852 15.5768 9.12398 15.5547 9.27036 15.5536C9.54103 15.5361 9.66976 15.3679 9.67416 15.1318C9.68859 14.379 9.63574 13.6287 9.58288 12.8783L9.58252 12.8732C9.57504 12.767 9.56756 12.6608 9.56028 12.5546C9.54103 12.264 9.65106 12.0241 9.87001 12.0022C9.93245 11.9957 9.99557 12.0035 10.0545 12.0251C10.1134 12.0466 10.1665 12.0813 10.2098 12.1266C10.253 12.1718 10.2852 12.2263 10.3038 12.2858C10.3225 12.3453 10.3271 12.4083 10.3173 12.4699C10.2654 12.9123 10.2561 13.3567 10.2469 13.797V13.7971C10.2463 13.8233 10.2458 13.8495 10.2452 13.8757C10.2335 14.3266 10.2449 14.7777 10.2793 15.2274C10.2936 15.4072 10.6094 15.5853 10.7893 15.5329C10.9389 15.4943 11.0958 15.4943 11.2454 15.5329C11.5205 15.5875 11.7873 15.2662 11.7059 15.0023C11.6829 14.9284 11.6374 14.9279 11.5715 14.9271C11.5677 14.927 11.5639 14.927 11.5601 14.9269C11.2787 14.9245 11.0033 14.8465 10.7629 14.7013C10.61 14.6084 10.6237 14.5374 10.7541 14.4418C10.8634 14.3589 10.9883 14.2985 11.1214 14.2643C11.2545 14.23 11.3932 14.2226 11.5293 14.2423C11.779 14.2746 11.8208 14.1713 11.7724 13.9484C11.6894 13.5659 11.5766 13.4567 11.1865 13.4392C11.159 13.4378 11.1311 13.4374 11.1031 13.4369C10.9398 13.4343 10.7749 13.4317 10.6809 13.2474C10.6553 13.1931 10.6486 13.1319 10.6619 13.0734C10.6753 13.0149 10.7079 12.9625 10.7547 12.9245C10.8381 12.852 10.9407 12.8047 11.0503 12.788C11.16 12.7714 11.2721 12.7861 11.3736 12.8305C11.7009 12.9737 12.0337 13.1267 12.294 13.3878C12.5657 13.661 12.5481 14.0085 12.5069 14.338C12.4688 14.6626 12.4482 14.9891 12.4453 15.3159C12.4365 15.8366 11.845 16.354 11.345 16.2524C11.2035 16.2237 11.063 16.2184 10.9231 16.2131C10.8367 16.2098 10.7505 16.2065 10.6644 16.1978C10.4075 16.1688 10.248 16.2688 10.1566 16.5491Z" fill="#3d3e45"/>
<path d="M29.2104 16.7512C29.1256 16.8502 29.0636 16.9653 29.0015 17.0807C28.9183 17.2354 28.8348 17.3906 28.6955 17.508C28.637 17.5572 28.5813 17.6096 28.5256 17.662L28.525 17.6626C28.3844 17.7948 28.2439 17.927 28.0601 18.0079C27.8032 18.121 27.6156 18.0762 27.4923 17.8675C27.3779 17.6746 27.4208 17.4746 27.6777 17.3533C28.2372 17.09 28.6064 16.6518 28.9293 16.1513C29.0612 15.9467 29.0171 15.7475 28.973 15.5484C28.9494 15.4418 28.9258 15.3352 28.9293 15.228C28.9293 15.1427 28.8132 15.1876 28.7494 15.2231C28.5151 15.3473 28.2965 15.4986 28.098 15.6738C28.0295 15.7419 27.9409 15.7867 27.845 15.8015C27.7492 15.8163 27.6511 15.8005 27.5649 15.7563C27.4131 15.6897 27.4153 15.5378 27.428 15.4012C27.4472 15.1985 27.5622 15.0952 27.758 15.0187C27.995 14.9305 28.2166 14.8061 28.4149 14.6499C28.6014 14.5024 28.542 14.2871 28.4204 14.1156C28.3236 13.979 28.2066 13.8448 28.0907 13.712L28.0903 13.7115C28.0608 13.6776 28.0313 13.6439 28.0023 13.6102C27.8714 13.4583 27.834 13.2982 27.9176 13.107C28.0106 12.894 28.1993 12.8724 28.3855 12.8511L28.3856 12.8511C28.3976 12.8497 28.4096 12.8483 28.4215 12.8469C28.619 12.8234 28.7081 12.9671 28.7819 13.1201C28.813 13.1854 28.8455 13.2498 28.878 13.3145C28.9273 13.4122 28.9767 13.5102 29.0217 13.6118C29.0591 13.6954 29.102 13.743 29.2027 13.7424C29.2444 13.7451 29.2856 13.7321 29.318 13.7058C29.3504 13.6795 29.3715 13.642 29.3771 13.6009C29.3873 13.5422 29.4057 13.4838 29.4241 13.4255L29.4242 13.4254L29.4242 13.4253L29.4243 13.4247C29.4811 13.2444 29.5379 13.0643 29.3557 12.8742C29.2379 12.7502 29.2946 12.5967 29.4591 12.4869C29.6137 12.3847 29.7221 12.3301 29.8816 12.494C30.2601 12.8835 30.3085 13.4599 30.0588 13.9336C30.0247 13.9983 29.9875 14.0627 29.9502 14.1276C29.7526 14.4704 29.5487 14.8244 29.7606 15.2668C29.8998 15.5553 29.9388 15.8749 29.9729 16.1907C29.9878 16.3288 30.0092 16.4679 30.0307 16.6071L30.0309 16.6088L30.0309 16.6089C30.0834 16.9488 30.1359 17.2895 30.0934 17.6178C30.0826 17.7024 30.0722 17.7873 30.0619 17.8723C29.9674 18.649 29.8715 19.4383 29.3518 20.0972C29.2353 20.2364 29.0871 20.3462 28.9194 20.4174C28.7324 20.5059 28.5866 20.4419 28.5211 20.2627C28.4669 20.1144 28.3669 20.004 28.267 19.8937C28.2108 19.8316 28.1547 19.7697 28.1068 19.7011C28.0885 19.6751 28.0669 19.6514 28.0454 19.6278C28.0179 19.5976 27.9905 19.5674 27.9698 19.5328C27.8642 19.3569 27.7729 19.1695 27.9445 18.9864C28.0952 18.8258 28.2517 18.9088 28.4012 18.988C28.422 18.9991 28.4428 19.0101 28.4633 19.0203C28.5114 19.0464 28.5566 19.0776 28.5981 19.1132C28.8534 19.3203 29.2143 19.2061 29.2275 18.8881C29.2283 18.8679 29.2291 18.8477 29.2299 18.8276C29.247 18.3964 29.2639 17.9711 29.3722 17.5473C29.4398 17.279 29.3573 17.0064 29.2104 16.7512Z" fill="#3d3e45"/>
<path d="M4.81967 19.6519C4.90439 20.2037 5.26364 20.5086 5.75492 20.4643C6.08666 20.466 6.59719 20.1141 6.63405 19.8327C6.73994 19.023 6.74382 18.2034 6.6456 17.3927C6.61755 17.1736 6.66486 16.9971 6.85191 16.8747C6.97773 16.7994 7.08297 16.6945 7.15834 16.5693C7.21941 16.46 7.24416 16.336 7.14624 16.2415C7.05987 16.1584 6.94819 16.1049 6.8288 16.2049C6.71984 16.2963 6.65673 16.2243 6.58713 16.1449L6.58509 16.1426C6.42497 15.9577 6.4812 15.771 6.53656 15.5871L6.5367 15.5867C6.55605 15.5224 6.57529 15.4585 6.58509 15.3952C6.63295 15.0898 6.77764 14.9991 7.09782 15.0127C7.34979 15.0236 7.56435 14.8838 7.57535 14.7013C7.58746 14.5046 7.41526 14.3451 7.16164 14.3188C7.13278 14.3156 7.10346 14.3153 7.0741 14.315C7.0391 14.3147 7.00405 14.3143 6.96964 14.309C6.82495 14.2861 6.69182 14.2085 6.70997 14.0577C6.72395 13.9325 6.71938 13.8072 6.71481 13.6821V13.682C6.70859 13.5116 6.70239 13.3415 6.74298 13.172C6.79634 12.9507 6.58949 12.6306 6.37548 12.6076C6.11747 12.5798 6.01734 12.7229 5.96232 12.9682C5.8886 13.2693 5.92216 13.5583 5.96232 13.8501C5.98928 14.0664 5.97663 14.2041 5.71421 14.2669C5.54022 14.3091 5.37149 14.3079 5.20212 14.3067C5.17387 14.3065 5.14561 14.3063 5.1173 14.3063C4.9308 14.309 4.7608 14.3298 4.59301 14.4265C4.37845 14.5516 4.32233 14.7302 4.40761 14.934C4.49288 15.1378 4.67773 15.1258 4.87798 15.0832C4.94731 15.0684 5.01595 15.0499 5.08467 15.0315C5.27664 14.9799 5.46929 14.9281 5.67955 14.9543C5.88805 14.9799 5.97278 15.0734 5.97773 15.2646C5.97858 15.4453 5.997 15.6255 6.03274 15.8028C6.11801 16.1901 5.90786 16.678 5.60033 16.7365C5.46906 16.7614 5.34962 16.8135 5.23016 16.8655C5.06974 16.9354 4.90928 17.0053 4.72009 17.0097C4.46372 17.0146 4.31188 17.3096 4.38175 17.556C4.44722 17.7866 4.63042 17.8768 4.90549 17.7746C4.9304 17.7653 4.95546 17.7563 4.98057 17.7472C5.14846 17.6864 5.31867 17.6247 5.46224 17.5069C5.52188 17.4556 5.59535 17.4227 5.67357 17.4125C5.75178 17.4022 5.83132 17.4148 5.90236 17.449C6.04996 17.508 6.04745 17.6287 6.04495 17.7496C6.04462 17.7653 6.04429 17.7809 6.04429 17.7964C6.04628 17.9 6.0435 18.0041 6.04073 18.1081C6.03426 18.3508 6.02779 18.5936 6.0817 18.8307C6.13012 19.04 6.08611 19.223 6.02009 19.4109C5.99685 19.4889 5.95177 19.5587 5.89012 19.6122C5.82846 19.6657 5.75276 19.7007 5.67184 19.7131C5.53321 19.7267 5.45124 19.5776 5.38852 19.4497C5.31755 19.3077 5.22403 19.1705 5.03257 19.2312C4.82792 19.2951 4.79216 19.4689 4.81967 19.6519Z" fill="#3d3e45"/>
<path d="M17.4461 22.3171C17.3748 22.3897 17.3159 22.3856 17.2637 22.3819C17.2584 22.3816 17.2531 22.3812 17.2479 22.3809C17.2431 22.3807 17.2384 22.3805 17.2337 22.3804C15.0481 22.3715 12.8627 22.4013 10.6773 22.431H10.6762L10.6757 22.4311C9.00432 22.4538 7.33291 22.4766 5.66139 22.4821C5.55157 22.4821 5.44159 22.4846 5.33157 22.4871L5.33141 22.4871C5.0204 22.4943 4.70898 22.5015 4.39936 22.4515C4.31669 22.4443 4.23692 22.4177 4.16664 22.3739C3.93833 22.21 3.94053 22.0373 4.19855 21.9297C4.56055 21.7778 4.94015 21.6516 5.33846 21.6734C6.13782 21.7172 6.93388 21.6532 7.72499 21.5789C7.99945 21.5538 8.27615 21.5699 8.54581 21.6265C9.48971 21.8254 10.4463 21.8468 11.402 21.8681C11.5168 21.8707 11.6317 21.8733 11.7466 21.8761C13.029 21.9078 14.3124 21.8942 15.5943 21.8281C15.7317 21.8261 15.8688 21.8133 16.0042 21.7898C16.5956 21.6642 17.0219 21.9543 17.4461 22.3171Z" fill="#3d3e45"/>
<path d="M33.2522 13.7822C33.4298 13.7576 33.5944 13.7349 33.72 13.6829C34.2811 13.7271 34.691 13.4834 34.85 13.0802C34.96 12.8016 34.7185 12.4858 34.4099 12.5115C34.2626 12.5231 34.123 12.5817 34.0121 12.6786C33.8455 12.8211 33.6511 12.9279 33.4411 12.9923C32.6631 13.2354 31.8819 13.4184 31.0567 13.2589C31.0161 13.2506 30.9741 13.2521 30.9342 13.2632C30.8943 13.2744 30.8577 13.2948 30.8273 13.3228C30.5093 13.5993 30.3135 14.3046 30.4598 14.7073C30.4891 14.7881 30.5304 14.8663 30.5715 14.9442L30.5715 14.9442C30.6337 15.0621 30.6955 15.1792 30.7151 15.3039C30.7245 15.3641 30.7342 15.4243 30.7438 15.4845C30.8608 16.214 30.9784 16.9473 30.7288 17.6806C30.6827 17.809 30.6492 17.9414 30.6287 18.0762C30.5677 18.5901 30.354 19.0744 30.0147 19.4672C29.8871 19.6158 29.842 20.0316 29.9328 20.1922C30.0334 20.372 30.2095 20.4042 30.3844 20.3791C30.6386 20.3409 30.7987 20.1775 30.8972 19.942C31.0823 19.501 31.1714 19.0376 31.2605 18.5742C31.3089 18.3228 31.3573 18.0715 31.4209 17.8238C31.4488 17.7152 31.4382 17.6087 31.4277 17.504C31.4168 17.3937 31.406 17.2856 31.4407 17.1796C31.5997 16.6917 31.5117 16.2114 31.3797 15.7465C31.3625 15.6854 31.3446 15.6248 31.3268 15.5642C31.2607 15.3397 31.1951 15.1167 31.1656 14.8805C31.1106 14.4379 31.5122 13.9631 31.9744 13.9631C32.2663 13.9629 32.557 13.9262 32.8397 13.8539C32.9773 13.8201 33.1184 13.8006 33.2522 13.7822Z" fill="#3d3e45"/>
<path d="M35.8435 27.2289V26.0815C35.8435 25.9608 35.8391 25.8367 35.7159 25.7728C35.5778 25.7012 35.4408 25.7439 35.3308 25.8329C35.1146 26.0078 34.9534 26.2012 34.9655 26.5181C34.9788 26.8639 34.9768 27.2097 34.9748 27.5555C34.9733 27.8107 34.9718 28.0659 34.9765 28.3211C34.9804 28.5336 34.965 28.6461 34.6932 28.6352C34.4555 28.6254 34.3868 28.5762 34.3934 28.3331C34.4126 27.6605 34.4104 26.9863 34.3934 26.3115C34.3924 26.2703 34.396 26.2251 34.3998 26.1789C34.4151 25.9902 34.432 25.7835 34.1403 25.7466C33.8867 25.7138 33.5313 26.0979 33.5296 26.3787C33.5289 26.5038 33.528 26.6289 33.527 26.7539V26.7541C33.5228 27.3027 33.5186 27.8513 33.5351 28.4003C33.5426 28.6442 33.4174 28.635 33.2651 28.6237L33.2502 28.6227C33.2199 28.6205 33.1877 28.6228 33.1559 28.6251C33.0365 28.6336 32.9219 28.6419 32.9289 28.4101C32.9408 28.0308 32.9387 27.6514 32.9367 27.2719C32.9352 27.0053 32.9337 26.7387 32.9371 26.4722C32.941 26.1323 32.9173 25.799 32.7869 25.4822C32.7358 25.357 32.7512 25.2745 32.9008 25.3079C32.9583 25.3206 33.0224 25.3108 33.0867 25.3009C33.2262 25.2796 33.367 25.258 33.4438 25.4663C33.463 25.5187 33.5136 25.4812 33.5531 25.4518C33.5622 25.4451 33.5706 25.4388 33.578 25.4341C33.9873 25.1735 34.3818 25.144 34.7449 25.5122C34.8311 25.6023 34.8825 25.5524 34.9327 25.5036C34.9373 25.4992 34.9418 25.4948 34.9464 25.4904C34.9507 25.4864 34.9549 25.4825 34.9592 25.4788C34.9611 25.4771 34.9631 25.4755 34.965 25.474C35.289 25.221 35.6345 25.1653 36.0163 25.3401C36.3359 25.4871 36.4861 25.7466 36.4922 26.0766C36.5005 26.5787 36.5007 27.0809 36.501 27.5837C36.5012 27.8825 36.5013 28.1814 36.5032 28.4806C36.5032 28.5806 36.479 28.6183 36.3684 28.6287L36.366 28.6289C35.8457 28.6784 35.8424 28.6787 35.8424 28.1593V27.2305L35.8435 27.2289Z" fill="#3d3e45"/>
<path fill-rule="evenodd" clip-rule="evenodd" d="M9.6098 28.7084C9.75449 28.8964 9.96079 28.9199 10.2254 28.9199C10.4532 28.9079 10.7536 28.8898 10.9263 28.6625C11.0676 28.484 11.2228 28.3168 11.3906 28.1626C11.8946 27.6709 12.0844 26.4263 11.4242 25.8679C11.3141 25.7734 11.2591 25.6646 11.3692 25.5155C11.6272 25.1603 11.5843 24.9341 11.2041 24.6959C11.1509 24.6627 11.0902 24.6386 11.0298 24.6146C10.8639 24.5489 10.7002 24.484 10.7002 24.2321C10.7002 24.1947 10.6302 24.1528 10.5762 24.1204C10.5709 24.1173 10.5659 24.1143 10.561 24.1113C10.1946 23.8808 9.41339 24.2353 9.33087 24.6686C9.32358 24.6953 9.32473 24.7235 9.33417 24.7495C9.45685 24.9697 9.28191 25.0811 9.14657 25.1592C8.84674 25.3324 8.74001 25.6034 8.66574 25.9127C8.56782 26.317 8.56782 26.7311 8.58707 27.13C8.59973 27.3933 8.61788 27.7075 8.79998 27.9468C8.85029 28.0136 8.89487 28.0861 8.93943 28.1586C9.0805 28.3882 9.22143 28.6176 9.54378 28.662C9.57054 28.6694 9.59387 28.6858 9.6098 28.7084ZM9.89414 24.66C10.0209 24.5695 10.1411 24.4837 10.2881 24.5074C10.6083 24.52 10.8234 24.5943 10.8691 24.8937C10.8691 24.9301 10.8763 24.9662 10.8905 24.9997C11.2207 25.496 11.1853 26.0378 11.1502 26.5764C11.1403 26.728 11.1304 26.8794 11.1288 27.0295C11.1254 27.3005 11.0259 27.5824 10.9158 27.8364C10.8608 27.9688 10.7647 28.0803 10.6416 28.1549C10.5184 28.2294 10.3746 28.2631 10.2309 28.2511C9.90963 28.2342 9.6197 28.1162 9.49261 27.7807L9.48655 27.7646C9.43444 27.6257 9.38521 27.4946 9.26815 27.3857C9.18453 27.3092 9.18398 27.1846 9.20874 27.0579C9.29621 26.6131 9.35893 26.1689 9.30722 25.7083C9.28842 25.5443 9.37693 25.3836 9.46294 25.2275C9.48519 25.1872 9.50726 25.1471 9.52727 25.1073C9.54425 25.072 9.54511 25.0284 9.54596 24.9854C9.54739 24.9127 9.54879 24.8414 9.62795 24.8139C9.72563 24.7802 9.81127 24.7191 9.89414 24.66Z" fill="#3d3e45"/>
<path d="M33.0824 15.7241C33.1475 16.3012 32.9395 16.8614 32.7297 17.4264L32.7295 17.4269L32.7294 17.4272C32.7091 17.4819 32.6888 17.5367 32.6686 17.5916C32.6194 17.7265 32.5783 17.8639 32.5371 18.0016C32.4928 18.1499 32.4484 18.2985 32.3936 18.4444C32.2467 18.8416 32.6538 19.2541 33.0697 19.1547C33.259 19.1099 33.364 18.7968 33.276 18.5308C33.2632 18.4919 33.2469 18.454 33.2307 18.4161L33.2304 18.4155L33.2304 18.4154C33.2036 18.3528 33.1769 18.2905 33.166 18.2253C33.1319 18.0418 33.221 17.9576 33.4003 18.0281C33.64 18.1246 33.8358 18.305 33.9505 18.5351C34.0781 18.7936 34.186 19.0815 34.1827 19.3896C34.1827 19.5115 34.1755 19.6262 34.044 19.6885C33.9871 19.7199 33.9206 19.7297 33.857 19.7159C33.7934 19.7021 33.7371 19.6658 33.6985 19.6136C33.5956 19.4874 33.528 19.5251 33.4295 19.6136C33.1126 19.9038 32.744 20.0573 32.3292 19.8655C31.9364 19.6841 31.7791 19.3416 31.7741 18.9132C31.7703 18.5695 31.8143 18.2412 31.9859 17.9418C32.165 17.6305 32.2718 17.293 32.3785 16.956L32.3785 16.9559L32.3786 16.9558L32.3786 16.9556L32.3787 16.9555L32.3787 16.9554L32.3787 16.9553L32.3788 16.9551L32.3788 16.955L32.3789 16.9548L32.3793 16.9535C32.4169 16.8347 32.4545 16.7158 32.4954 16.5983C32.5727 16.3748 32.5645 16.1309 32.4722 15.9131C32.3298 15.5733 32.2489 15.2263 32.3072 14.8526C32.3419 14.6253 32.5014 14.557 32.6852 14.5204C32.8671 14.4843 32.9224 14.6076 32.9797 14.7354C32.9874 14.7525 32.9951 14.7696 33.0031 14.7865C33.119 15.0339 33.1053 15.2876 33.0899 15.573L33.0898 15.5736C33.0872 15.6227 33.0845 15.6729 33.0824 15.7241Z" fill="#3d3e45"/>
<path fill-rule="evenodd" clip-rule="evenodd" d="M30.7602 28.6161C31.4303 28.4047 31.8308 27.7676 31.8456 26.871C31.8446 26.8535 31.8439 26.8321 31.8432 26.808C31.8411 26.7419 31.8383 26.6551 31.8258 26.5694C31.7378 25.8586 31.1079 25.2882 30.3498 25.2292C29.5565 25.1674 28.9579 25.5565 28.7406 26.294C28.5607 26.9054 28.6575 27.4961 28.9106 28.0703C28.9825 28.2388 29.1113 28.3771 29.2748 28.4615C29.7501 28.7134 30.2475 28.7773 30.7602 28.6161ZM31.1645 26.5372C31.1737 26.6732 31.1746 26.8097 31.1673 26.9459C31.1915 27.3469 31.1365 27.7141 30.8141 28.0135C30.3888 28.4101 29.6637 28.3052 29.4266 27.778C29.2352 27.3518 29.1664 26.9022 29.3089 26.4492C29.5169 25.787 30.0373 25.6149 30.6881 25.8269C31.0111 25.9362 31.1255 26.2247 31.1645 26.5372Z" fill="#3d3e45"/>
<path d="M28.5563 22.5471H25.673C25.3242 22.5471 25.0365 22.4258 24.8159 22.1433C24.6965 21.9909 24.7531 21.9423 24.9072 21.9166C24.97 21.9045 25.0336 21.897 25.0975 21.8942C27.1639 21.8576 29.2302 21.886 31.296 21.9515C31.5069 21.9581 31.7169 21.9976 31.9265 22.0369L31.9278 22.0372C31.9971 22.0502 32.0663 22.0632 32.1356 22.075L32.1399 22.0757C32.1866 22.0833 32.253 22.0941 32.2604 22.1603C32.2676 22.2234 32.2211 22.2491 32.1767 22.2738C32.1731 22.2758 32.1694 22.2779 32.1658 22.2799C31.9469 22.4127 31.6961 22.485 31.4396 22.4892C30.7989 22.4866 30.1581 22.4875 29.5174 22.4883C29.197 22.4887 28.8767 22.4892 28.5563 22.4892V22.5471Z" fill="#3d3e45"/>
<path d="M27.4635 27.8426C27.4633 27.7828 27.3931 27.7232 27.2419 27.5951C27.2076 27.5661 27.1692 27.5335 27.1265 27.4966C27.0777 27.5488 27.0299 27.602 26.9822 27.6551L26.982 27.6553C26.8839 27.7646 26.7859 27.8736 26.6798 27.9736C26.4487 28.1828 26.1846 28.309 25.8545 28.2468C25.3737 28.1555 25.0288 27.8965 24.8835 27.4305C24.7207 26.9071 24.7575 26.405 25.1503 25.9782C25.2115 25.9105 25.2897 25.8602 25.377 25.8324C26.1082 25.6302 26.5021 25.7165 26.8596 26.2733C26.9537 26.4203 27.0291 26.4662 27.1738 26.3525C27.2397 26.3036 27.3111 26.2625 27.3867 26.2301C27.4824 26.1875 27.4648 26.1372 27.423 26.0624C26.946 25.2051 25.6218 24.9593 24.8318 25.5707C24.2096 26.0526 24.1573 26.7 24.2674 27.3928C24.3224 27.7463 24.4368 28.0954 24.7377 28.3189C25.3225 28.7543 26.436 28.957 27.1721 28.1856C27.226 28.1291 27.2729 28.0827 27.3124 28.0437C27.4109 27.9465 27.4637 27.8944 27.4635 27.8426Z" fill="#3d3e45"/>
<path d="M5.82534 28.7052C5.78589 28.7017 5.74644 28.6984 5.70699 28.695C5.62816 28.6883 5.54933 28.6817 5.47049 28.674L5.45569 28.6726L5.45512 28.6725C5.32921 28.6606 5.1859 28.647 5.19542 28.4806C5.20371 28.3308 5.33991 28.3328 5.45317 28.3345L5.46429 28.3346C5.46748 28.3347 5.47065 28.3347 5.47379 28.3347C5.65672 28.3318 5.83756 28.2957 6.00744 28.2282C6.49212 28.0555 6.64726 27.7512 6.49321 27.2671C6.49321 27.2621 6.49071 27.257 6.48815 27.2519L6.48716 27.2499C6.4859 27.2473 6.4847 27.2447 6.48386 27.242L6.48261 27.2376C6.32377 26.6858 6.3222 26.6803 5.72521 26.6825C5.3225 26.6825 4.96106 26.6142 4.73494 26.235C4.71235 26.2075 4.6827 26.1866 4.64912 26.1744C4.32233 26.0187 4.209 25.7034 4.35479 25.3718C4.39881 25.2718 4.47528 25.1937 4.571 25.1849C4.66673 25.1762 4.71899 25.2838 4.73935 25.3707C4.83287 25.7706 5.10464 25.9504 5.49305 26.0159C5.77417 26.0635 6.03824 26.1629 6.2473 26.3722C6.32867 26.4541 6.438 26.4589 6.54636 26.4637L6.55318 26.464C6.71616 26.4734 6.87062 26.5394 6.98957 26.6505C7.10853 26.7615 7.18442 26.9106 7.20401 27.0715L7.2083 27.1049C7.2506 27.4322 7.29334 27.763 7.13744 28.0785C7.13101 28.0912 7.12574 28.1062 7.12049 28.1212C7.10954 28.1524 7.09865 28.1834 7.07747 28.1938C6.95798 28.2526 6.84654 28.3312 6.73506 28.4097C6.46878 28.5974 6.20228 28.7853 5.82534 28.7052Z" fill="#3d3e45"/>
<path d="M34.0295 16.8464C34.0299 16.895 34.0303 16.9503 34.0303 17.0162C34.0576 17.733 34.2097 18.4397 34.4797 19.105C34.6514 19.5421 34.883 19.9213 35.2345 20.2163C35.2451 20.2251 35.2558 20.2339 35.2664 20.2428C35.5029 20.4395 35.7545 20.6488 36.1109 20.584C36.4394 20.5239 36.5928 20.2655 36.4531 19.9983C36.375 19.8497 36.2353 19.7196 36.0933 19.6912C35.6158 19.5967 35.3688 19.2449 35.1581 18.8804C34.8809 18.3994 34.6843 17.8768 34.576 17.3331C34.5265 17.0763 34.4748 16.8163 34.3614 16.5764C34.3218 16.4961 34.2685 16.4054 34.1568 16.4262C34.0451 16.4469 34.033 16.5398 34.0303 16.6398C34.0285 16.7023 34.029 16.7649 34.0295 16.8462V16.8464Z" fill="#3d3e45"/>
<path d="M18.4743 26.7541C18.4705 26.7975 18.4663 26.8408 18.4621 26.8841L18.4621 26.8843C18.4522 26.9862 18.4422 27.0881 18.438 27.1912C18.4149 27.7474 18.8506 28.3151 19.3133 28.3385C19.7363 28.3577 20.1765 27.9015 20.2144 27.3884C20.2269 27.2207 20.225 27.0519 20.2231 26.8832V26.8831C20.2228 26.8512 20.2224 26.8193 20.2221 26.7874C20.2221 26.6661 20.2551 26.5607 20.3839 26.5416C20.485 26.5265 20.5023 26.6062 20.5178 26.6779C20.5221 26.6975 20.5262 26.7165 20.5319 26.7328C20.6479 27.0655 20.7327 27.4256 20.7013 27.7589C20.6738 28.0517 20.55 28.3844 20.2337 28.5615C20.1064 28.633 19.9838 28.713 19.8612 28.7929C19.8312 28.8125 19.8011 28.8321 19.771 28.8516C19.5042 29.0248 19.233 29.0559 18.9458 28.8942C18.8787 28.8564 18.8089 28.8231 18.739 28.7898L18.7385 28.7896C18.6692 28.7565 18.5999 28.7235 18.5332 28.686C17.8701 28.3153 17.906 27.6851 17.9409 27.0724L17.9423 27.0469C17.9515 26.8819 17.9984 26.7188 18.0452 26.5558L18.0454 26.5555C18.0689 26.4735 18.0925 26.3915 18.1112 26.3093C18.1338 26.2115 18.1932 26.1225 18.2807 26.1203C18.3473 26.1186 18.3693 26.183 18.391 26.2468C18.3978 26.2667 18.4046 26.2866 18.4127 26.3044C18.465 26.412 18.4675 26.5257 18.4701 26.641C18.4709 26.6786 18.4717 26.7163 18.4743 26.7541Z" fill="#3d3e45"/>
<path d="M14.0371 24.7764V24.7762C14.0407 24.7251 14.0442 24.674 14.0495 24.6233C14.0495 24.584 14.0501 24.5454 14.0506 24.5075C14.0519 24.4231 14.0531 24.3415 14.0478 24.2605C14.0357 24.0698 13.8338 23.9245 13.6215 23.9327C13.3833 23.9419 13.304 24.0649 13.3244 24.2883C13.3469 24.5364 13.3992 24.7806 13.5329 24.9866C13.6792 25.2128 13.6726 25.427 13.5808 25.6581C13.4447 26.006 13.3807 26.3777 13.3926 26.7508L13.3935 26.7937C13.4026 27.2509 13.4118 27.708 13.3051 28.1604C13.2633 28.3336 13.2919 28.5172 13.3381 28.6986C13.3914 28.9101 13.5382 28.9127 13.6844 28.9153C13.7059 28.9157 13.7274 28.9161 13.7485 28.9171C13.9273 28.9264 13.9703 28.8139 13.9857 28.6582C14.0061 28.4553 13.9914 28.253 13.9766 28.0509C13.9617 27.8457 13.9467 27.6407 13.9686 27.4354C13.9741 27.3846 13.9787 27.3332 13.9833 27.2817L13.9834 27.2813C14.0104 26.9801 14.038 26.6729 14.2376 26.4317C14.3862 26.2531 14.3334 26.1711 14.187 26.0646C13.967 25.9039 13.8074 25.5439 13.9174 25.3286C14.0117 25.1458 14.0245 24.9602 14.0371 24.7764Z" fill="#3d3e45"/>
<path d="M15.6141 27.525C15.6418 27.3778 15.6111 27.2365 15.5803 27.0941C15.5498 26.9533 15.5191 26.8114 15.5442 26.6618C15.5684 26.5181 15.3885 26.4634 15.2383 26.464C15.233 26.464 15.2277 26.464 15.2224 26.464L15.2149 26.464L15.2001 26.4641L15.1861 26.4642L15.1592 26.4645C14.9934 26.4661 14.8278 26.4677 14.6684 26.4055C14.6596 26.4021 14.6504 26.3988 14.6412 26.3954L14.6411 26.3954C14.565 26.3677 14.4823 26.3376 14.4945 26.2285C14.5061 26.1247 14.5908 26.07 14.6761 26.0444C14.8238 25.9966 14.9761 25.964 15.1305 25.9471C15.3742 25.9263 15.5607 25.8619 15.673 25.6105C15.7456 25.4466 15.893 25.5302 15.9893 25.6253C16.1791 25.8132 16.2094 26.0624 16.2017 26.3083C16.1973 26.4388 16.1861 26.5693 16.1749 26.6997V26.6998C16.1532 26.9514 16.1316 27.2024 16.1598 27.4518C16.2067 27.7837 16.2251 28.1189 16.2149 28.4538C16.2118 28.5351 16.2004 28.6158 16.1807 28.6948C16.1301 28.8778 15.9794 28.9133 15.8155 28.9177C15.6394 28.9221 15.5849 28.8084 15.5563 28.6587C15.5061 28.4356 15.5108 28.2038 15.5701 27.9829C15.6023 27.8702 15.6058 27.7566 15.6093 27.6432C15.6105 27.6037 15.6117 27.5643 15.6141 27.525Z" fill="#3d3e45"/>
<path d="M19.595 22.3345H21.241V22.4072H22.7501C22.9697 22.4167 23.189 22.3829 23.3954 22.3078C23.561 22.24 23.6028 22.1346 23.4377 22.0073C23.2507 21.8625 23.0378 21.7707 22.8034 21.7936C21.7361 21.8975 20.6666 21.9046 19.5961 21.8975C19.4145 21.8964 19.3496 21.9805 19.3386 22.1373C19.3248 22.3274 19.4618 22.3345 19.595 22.3345Z" fill="#3d3e45"/>
<path d="M5.52386 24.0769C5.7046 24.0432 5.88841 24.0745 6.07528 24.1063C6.22456 24.1317 6.37579 24.1575 6.52897 24.1507C6.56065 24.1494 6.59221 24.1552 6.6214 24.1675C6.65059 24.1797 6.67671 24.1982 6.69787 24.2217C6.8365 24.4594 6.96579 24.703 7.08297 24.9505C7.09187 24.9694 7.09662 24.99 7.09691 25.0108C7.09719 25.0317 7.09301 25.0524 7.08463 25.0715C7.07625 25.0906 7.06387 25.1077 7.04832 25.1217C7.03276 25.1357 7.01438 25.1463 6.9944 25.1527C6.97602 25.16 6.95748 25.1683 6.93881 25.1766C6.84122 25.2203 6.73987 25.2657 6.63735 25.1767C6.55654 25.1042 6.48063 25.0265 6.41014 24.944C6.17468 24.6746 5.89686 24.502 5.5211 24.5069C5.34115 24.5096 5.21491 24.6087 5.09063 24.7063C5.06294 24.7281 5.03534 24.7497 5.00727 24.7702C4.98319 24.7878 4.95965 24.8068 4.93628 24.8256C4.81017 24.9272 4.6892 25.0247 4.51654 24.8795C4.3955 24.7795 4.49453 24.4315 4.65407 24.2736C4.88368 24.0507 5.16124 24.0621 5.4599 24.0744C5.48112 24.0752 5.50244 24.0761 5.52386 24.0769Z" fill="#3d3e45"/>
<path d="M33.9218 15.0589C33.8961 15.2384 33.8717 15.4093 33.9109 15.5563C33.8746 15.7137 33.8878 15.8197 33.9285 15.9049C33.944 15.9358 33.9575 15.9719 33.9712 16.0088C34.0154 16.1275 34.0626 16.2543 34.1915 16.2393C34.3056 16.2263 34.3417 16.1003 34.377 15.977C34.3879 15.9392 34.3986 15.9017 34.4115 15.8678C34.4596 15.7408 34.4929 15.609 34.5263 15.4771C34.5891 15.2288 34.652 14.9802 34.8137 14.7625C34.9485 14.5805 34.7988 14.4166 34.6591 14.2959C34.5386 14.1926 34.395 14.1751 34.2685 14.2986L34.254 14.3127C34.1056 14.4572 33.9718 14.5876 33.9494 14.8379C33.9427 14.9123 33.9322 14.9863 33.9218 15.0589Z" fill="#3d3e45"/>
<path d="M20.0554 24.6544C20.0488 24.1485 20.1104 24.0485 20.4257 23.9742C20.6391 23.9239 20.7822 24.0234 20.8003 24.2474C20.814 24.3745 20.814 24.5027 20.8003 24.6298C20.7906 24.7059 20.7823 24.7824 20.774 24.859C20.7352 25.2159 20.6964 25.5738 20.5143 25.899L20.5137 25.9C20.4678 25.982 20.4368 26.0372 20.341 26.0291C20.27 26.0231 20.2221 25.9914 20.2221 25.91C20.2221 25.6919 20.1767 25.4804 20.1329 25.2765C20.0865 25.06 20.0418 24.8522 20.0554 24.6544Z" fill="#3d3e45"/>
<path d="M23.133 28.3243C23.1368 27.9697 22.9272 27.7676 22.5476 27.7599C22.4723 27.7559 22.397 27.7674 22.3264 27.7938C22.2558 27.8203 22.1916 27.861 22.1377 27.9134C22.0839 27.9658 22.0416 28.0288 22.0135 28.0983C21.9855 28.1678 21.9723 28.2424 21.9749 28.3172C21.9727 28.627 22.2566 28.9182 22.5575 28.9182C22.7131 28.9151 22.861 28.8508 22.9689 28.7394C23.0767 28.6281 23.1358 28.4788 23.133 28.3243Z" fill="#3d3e45"/>
<path d="M35.7385 22.4853C35.7024 22.4801 35.6626 22.4809 35.6222 22.4818C35.4953 22.4844 35.3627 22.4873 35.3248 22.3012C35.2659 22.0133 35.3798 21.8472 35.6818 21.8002C35.9753 21.7548 36.2721 21.7593 36.5686 21.7638H36.5687C36.6756 21.7654 36.7826 21.7671 36.8894 21.7663C36.9482 21.7663 36.9923 21.7794 36.9994 21.8548C37.0154 22.0641 36.7056 22.4209 36.4911 22.434C36.4357 22.4373 36.3803 22.44 36.3247 22.4427L36.3246 22.4427C36.252 22.4462 36.1792 22.4498 36.106 22.4547C36.0246 22.4604 35.9433 22.4675 35.8584 22.475C35.8193 22.4784 35.7794 22.4819 35.7385 22.4853Z" fill="#3d3e45"/>
<path d="M18.5811 24.9812V24.9811C18.5886 24.8543 18.5961 24.7276 18.6179 24.6036C18.6179 24.5783 18.6196 24.5525 18.6213 24.5267C18.6251 24.4694 18.6288 24.4121 18.614 24.3605C18.6073 24.3381 18.6013 24.3149 18.5953 24.2917L18.5953 24.2916C18.5591 24.1518 18.5219 24.0081 18.3126 24.0048C18.0683 24.001 17.9445 24.1294 17.8829 24.3435C17.829 24.5282 17.873 24.703 17.9456 24.8724L17.9525 24.8882C17.997 24.9915 18.0409 25.0931 18.0314 25.2101C18.0149 25.4095 18.098 25.58 18.1871 25.7504C18.1891 25.7542 18.1911 25.758 18.1931 25.7619C18.2174 25.8087 18.2419 25.856 18.2928 25.8641C18.3576 25.8739 18.3747 25.829 18.3917 25.7843C18.3974 25.7694 18.4031 25.7545 18.4105 25.7417C18.5501 25.5031 18.5656 25.242 18.5811 24.9812Z" fill="#3d3e45"/>
<path d="M8.15301 13.808C8.03803 13.8124 7.93295 13.808 7.87243 13.685C7.8123 13.5684 7.87679 13.5065 7.94414 13.4419C7.95441 13.432 7.96479 13.4221 7.97476 13.4119C8.06255 13.3194 8.14823 13.2253 8.23389 13.1312L8.23394 13.1311L8.23405 13.131L8.2344 13.1306L8.2345 13.1305L8.23456 13.1304C8.3006 13.0579 8.36662 12.9853 8.43358 12.9136C8.56562 12.7732 8.71526 12.6819 8.91826 12.7595C9.08331 12.8223 9.22964 12.9234 9.22029 13.1037C9.21094 13.284 9.13722 13.449 8.93642 13.5293C8.85938 13.5595 8.78459 13.5955 8.70983 13.6316C8.53368 13.7166 8.35771 13.8015 8.15301 13.808Z" fill="#3d3e45"/>
<path d="M33.5986 22.4288C33.6779 22.4284 33.7572 22.428 33.8366 22.428L33.8355 22.4089C33.9172 22.4089 33.9992 22.4096 34.0813 22.4103L34.0817 22.4103H34.0818C34.2466 22.4118 34.4118 22.4132 34.5766 22.4089C34.6558 22.4067 34.7554 22.3903 34.7735 22.2947C34.7878 22.2176 34.719 22.1613 34.6547 22.1253C34.629 22.1107 34.6034 22.0961 34.5777 22.0815C34.4292 21.9967 34.2807 21.912 34.1254 21.8412C33.8405 21.7111 33.188 21.8701 32.9866 22.1084C32.9829 22.113 32.9791 22.1176 32.9753 22.1223C32.926 22.1822 32.8755 22.2437 32.9113 22.3269C32.9498 22.4165 33.0411 22.428 33.1214 22.428C33.2808 22.4305 33.4394 22.4297 33.598 22.4288H33.5986Z" fill="#3d3e45"/>
<path d="M15.4947 24.3599C15.4482 24.1601 15.5805 24.0864 15.7067 24.0161C15.7296 24.0034 15.7523 23.9907 15.7736 23.9775C15.8837 23.9064 15.9981 23.9267 16.0971 24.025C16.233 24.1605 16.332 24.3075 16.266 24.5085C16.2286 24.6218 16.189 24.7344 16.1493 24.847C16.1051 24.9727 16.0608 25.0985 16.0196 25.2254C15.9827 25.3396 15.9178 25.4335 15.7995 25.4368C15.6526 25.4412 15.6058 25.3051 15.5838 25.1953C15.5579 25.0646 15.5512 24.9321 15.5445 24.8001V24.8001C15.5369 24.6517 15.5294 24.5039 15.4947 24.3599Z" fill="#3d3e45"/>
<path d="M4.16143 28.0454C4.23841 28.2602 4.31268 28.4674 4.60676 28.4855C4.61901 28.4855 4.63196 28.4869 4.6448 28.4883C4.67116 28.4912 4.69701 28.494 4.71514 28.4844C4.75458 28.4619 4.80517 28.4578 4.85489 28.4538C4.93763 28.4471 5.01794 28.4406 5.04028 28.3495C5.07109 28.2233 4.95941 28.1233 4.85708 28.0391C4.72634 27.9243 4.63562 27.7713 4.59796 27.602C4.56055 27.4622 4.44392 27.3578 4.32619 27.4425C4.17049 27.5551 4.03351 27.7097 4.12758 27.9534C4.13935 27.9838 4.15042 28.0147 4.16143 28.0454Z" fill="#3d3e45"/>
</svg>
