<svg width="41" height="41" viewBox="0 0 41 41" fill="none" xmlns="http://www.w3.org/2000/svg">
<path d="M20.443 1.7C24.15 1.7004 27.7735 2.79999 30.8555 4.85974C33.9375 6.91949 36.3396 9.84688 37.7579 13.2718C39.1762 16.6966 39.5471 20.4652 38.8236 24.1008C38.1002 27.7365 36.3149 31.076 33.6936 33.697C31.0723 36.3181 27.7326 38.103 24.0969 38.826C20.4611 39.549 16.6926 39.1778 13.2679 37.7591C9.84319 36.3404 6.91605 33.9381 4.85663 30.8558C2.79721 27.7736 1.698 24.1499 1.698 20.443C1.70382 15.4735 3.68069 10.7092 7.19485 7.19542C10.709 3.68163 15.4735 1.70529 20.443 1.7V1.7ZM20.443 2.44708e-08C16.3999 -0.000197759 12.4476 1.19853 9.08578 3.44461C5.72398 5.69069 3.10373 8.88322 1.55637 12.6185C0.00900578 16.3538 -0.395977 20.464 0.392669 24.4294C1.18132 28.3948 3.12814 32.0374 5.98697 34.8963C8.84579 37.7553 12.4882 39.7023 16.4536 40.4911C20.419 41.28 24.5292 40.8752 28.2646 39.328C31.9999 37.7809 35.1926 35.1608 37.4388 31.7991C39.6851 28.4374 40.884 24.4851 40.884 20.442C40.884 15.0206 38.7304 9.82127 34.897 5.98768C31.0636 2.15409 25.8644 0.000265232 20.443 2.44708e-08V2.44708e-08Z" fill="#3d3e45"/>
<path fill-rule="evenodd" clip-rule="evenodd" d="M17.9529 13.0222C17.8586 13.0237 17.7642 13.0163 17.6713 13H16.8541C16.8447 13.0025 16.8352 13.0046 16.8257 13.0064C16.8154 13.0083 16.8051 13.0098 16.7946 13.0108C16.4768 13.0245 16.1603 13.0579 15.8468 13.1109C14.9884 13.2485 14.1586 13.5222 13.3901 13.9213C12.6812 14.2848 12.0414 14.7649 11.4988 15.3407C11.0731 15.7918 10.7244 16.3071 10.4663 16.8668C10.0528 17.7609 9.91011 18.7525 10.055 19.7236C10.2078 20.8048 10.6869 21.7318 11.4398 22.5253C11.7836 22.8863 12.1712 23.2047 12.594 23.4734C12.6426 23.5014 12.6822 23.5422 12.7083 23.5912C12.7222 23.6172 12.7319 23.6451 12.7373 23.6737C12.7421 23.6989 12.7434 23.7246 12.7414 23.7503C12.7309 23.9746 12.6956 24.197 12.6361 24.4139C12.5765 24.6686 12.5009 24.9196 12.4255 25.1703L12.3981 25.2615C12.3827 25.3006 12.3784 25.343 12.3857 25.3843C12.393 25.4257 12.4116 25.4643 12.4396 25.496C12.4508 25.5088 12.4633 25.5202 12.477 25.5302C12.4973 25.5451 12.5201 25.5568 12.5444 25.5647C12.585 25.5779 12.6285 25.58 12.6703 25.5708C12.7215 25.5599 12.7694 25.5381 12.8109 25.5069C13.1574 25.2888 13.5086 25.0743 13.8687 24.8763C14.1107 24.7356 14.3661 24.6181 14.6311 24.5252C14.7381 24.485 14.8564 24.485 14.9634 24.5252C15.0033 24.5403 15.0442 24.5542 15.0854 24.5675C15.1285 24.5814 15.172 24.5945 15.2151 24.6077C15.5985 24.7324 15.992 24.8254 16.3913 24.8856C16.6298 24.917 16.8688 24.931 17.1095 24.9397C17.2611 24.9453 17.4125 24.9396 17.564 24.9339C17.6366 24.9311 17.7092 24.9283 17.7818 24.9268C17.8497 24.9253 17.854 24.899 17.8319 24.8438C17.5196 24.064 17.4382 23.2138 17.597 22.3907C17.8271 21.24 18.4495 20.3186 19.3446 19.5623C19.7906 19.1899 20.2883 18.8811 20.8225 18.6451C21.2167 18.4682 21.6268 18.328 22.0478 18.2264C22.4725 18.1223 22.9057 18.0552 23.3425 18.0258C23.6794 18.0027 24.0176 18.0027 24.3545 18.0258C24.4446 18.0326 24.454 18.0248 24.4346 17.9361C24.3451 17.5185 24.2036 17.1131 24.0133 16.7292C23.5942 15.8841 22.9882 15.1886 22.2394 14.6091C21.7533 14.235 21.2204 13.9231 20.6536 13.6811C19.7977 13.314 18.8846 13.0912 17.9529 13.0222ZM14.0267 17.6074C13.9159 17.4435 13.8572 17.2511 13.8582 17.0545C13.858 16.9239 13.8842 16.7946 13.9353 16.674C13.9865 16.5535 14.0616 16.444 14.1562 16.352C14.2509 16.2601 14.3633 16.1874 14.4868 16.1383C14.6103 16.0891 14.7426 16.0644 14.8759 16.0656C15.0767 16.0662 15.2728 16.1252 15.4393 16.2349C15.6058 16.3446 15.7353 16.5003 15.8115 16.6822C15.8877 16.864 15.9071 17.0639 15.8672 17.2566C15.8272 17.4492 15.7299 17.6259 15.5874 17.7644C15.4449 17.9028 15.2637 17.9968 15.0666 18.0343C14.8696 18.0719 14.6656 18.0514 14.4805 17.9754C14.2953 17.8994 14.1374 17.7713 14.0267 17.6074ZM20.4561 16.3573C20.6451 16.5446 20.7504 16.7978 20.7489 17.0612C20.748 17.1916 20.721 17.3206 20.6693 17.4408C20.6176 17.5609 20.5423 17.67 20.4475 17.7616C20.3528 17.8533 20.2406 17.9258 20.1172 17.975C19.9939 18.0241 19.8618 18.0491 19.7287 18.0483C19.5955 18.0475 19.4638 18.021 19.3411 17.9704C19.2183 17.9198 19.107 17.846 19.0134 17.7532C18.9198 17.6605 18.8457 17.5506 18.7955 17.4298C18.7453 17.309 18.7198 17.1797 18.7207 17.0493C18.7222 16.786 18.8306 16.534 19.022 16.3489C19.2133 16.1638 19.4718 16.0607 19.7408 16.0623C20.0098 16.0638 20.2671 16.17 20.4561 16.3573Z" fill="#3d3e45"/>
<path fill-rule="evenodd" clip-rule="evenodd" d="M30.1579 24.1726C30.1795 24.039 30.1931 23.9045 30.2105 23.7704L30.2079 23.1832C30.2033 23.1457 30.1992 23.1082 30.195 23.0707C30.1861 22.9915 30.1772 22.9123 30.1648 22.8336C30.0163 21.8984 29.5892 21.0951 28.939 20.4032C28.4119 19.8484 27.7782 19.401 27.074 19.0869C26.2466 18.7131 25.3519 18.5028 24.4413 18.4682C23.8516 18.4414 23.2607 18.4879 22.6828 18.6064C21.7805 18.7818 20.9265 19.143 20.1775 19.6659C19.5315 20.1109 18.9959 20.6924 18.6101 21.3673C18.2643 21.9704 18.0729 22.6466 18.052 23.3379C18.0312 24.0293 18.1817 24.7152 18.4906 25.3373C18.8339 26.0246 19.3326 26.6262 19.9491 27.0964C20.6607 27.6459 21.4842 28.0401 22.3642 28.2523C22.7994 28.3618 23.2445 28.4291 23.6931 28.4534C24.1095 28.4822 24.5278 28.4679 24.9411 28.4106C25.3195 28.3487 25.6914 28.2529 26.052 28.1245C26.1526 28.0888 26.263 28.09 26.3626 28.1281C26.3877 28.1364 26.4125 28.145 26.437 28.1541C26.4549 28.1607 26.4726 28.1676 26.4901 28.175C26.8571 28.3322 27.1977 28.5359 27.5379 28.7421C27.6032 28.7813 27.6677 28.822 27.7325 28.8624C27.792 28.8995 27.8517 28.9365 27.9122 28.9721C27.9498 28.9939 27.9936 29.0033 28.0371 28.999C28.0645 28.9962 28.0907 28.9881 28.1146 28.9754C28.1287 28.9678 28.1419 28.9586 28.1539 28.9478C28.1852 28.9249 28.2077 28.8925 28.218 28.8555C28.2282 28.8186 28.2254 28.7794 28.2103 28.7442C28.1939 28.6911 28.1776 28.6359 28.1618 28.5844C28.0582 28.2643 27.9805 27.9368 27.9291 27.6048C27.907 27.4326 27.9343 27.3026 28.1076 27.1954C28.5193 26.9337 28.8869 26.6106 29.1969 26.238C29.7061 25.6497 30.0387 24.9348 30.1579 24.1726ZM26.6006 22.5653C26.4609 22.6529 26.298 22.6985 26.1321 22.6965C26.0159 22.6961 25.9011 22.6723 25.7948 22.6264C25.6885 22.5805 25.5931 22.5136 25.5145 22.4299C25.4359 22.3462 25.3758 22.2475 25.338 22.14C25.3002 22.0324 25.2855 21.9184 25.2949 21.805C25.3067 21.643 25.3667 21.4878 25.4676 21.3588C25.5684 21.2297 25.7056 21.1324 25.8623 21.0788C26.0189 21.0252 26.1882 21.0177 26.3491 21.0572C26.5101 21.0967 26.6557 21.1815 26.768 21.3011C26.8804 21.4207 26.9545 21.5699 26.9812 21.7303C27.008 21.8906 26.9862 22.0552 26.9186 22.2035C26.8509 22.3519 26.7404 22.4777 26.6006 22.5653ZM21.3674 22.3227C21.2742 22.1857 21.2245 22.0248 21.2248 21.8602C21.2243 21.7515 21.2457 21.6438 21.2877 21.5433C21.3298 21.4427 21.3918 21.3513 21.4701 21.2742C21.5483 21.1972 21.6414 21.1361 21.7439 21.0943C21.8464 21.0526 21.9563 21.0311 22.0672 21.0311C22.2353 21.03 22.4 21.0778 22.5403 21.1685C22.6805 21.2591 22.7902 21.3885 22.8552 21.5403C22.9202 21.6921 22.9377 21.8593 22.9055 22.0209C22.8733 22.1824 22.7929 22.3309 22.6743 22.4476C22.5558 22.5642 22.4045 22.6438 22.2397 22.6761C22.0749 22.7085 21.904 22.6921 21.7487 22.6292C21.5934 22.5663 21.4607 22.4596 21.3674 22.3227Z" fill="#3d3e45"/>
</svg>
