<svg width="41" height="41" viewBox="0 0 41 41" fill="none" xmlns="http://www.w3.org/2000/svg">
<path d="M20.443 1.7C24.15 1.7004 27.7735 2.79999 30.8555 4.85974C33.9375 6.91949 36.3396 9.84688 37.7579 13.2718C39.1762 16.6966 39.5471 20.4652 38.8236 24.1008C38.1002 27.7365 36.3149 31.076 33.6936 33.697C31.0723 36.3181 27.7326 38.103 24.0969 38.826C20.4611 39.549 16.6926 39.1778 13.2679 37.7591C9.84319 36.3404 6.91605 33.9381 4.85663 30.8558C2.79721 27.7736 1.698 24.1499 1.698 20.443C1.70382 15.4735 3.68069 10.7092 7.19485 7.19542C10.709 3.68163 15.4735 1.70529 20.443 1.7V1.7ZM20.443 2.44708e-08C16.3999 -0.000197759 12.4476 1.19853 9.08578 3.44461C5.72398 5.69069 3.10373 8.88322 1.55637 12.6185C0.00900578 16.3538 -0.395977 20.464 0.392669 24.4294C1.18132 28.3948 3.12814 32.0374 5.98697 34.8963C8.84579 37.7553 12.4882 39.7023 16.4536 40.4911C20.419 41.28 24.5292 40.8752 28.2646 39.328C31.9999 37.7809 35.1926 35.1608 37.4388 31.7991C39.6851 28.4374 40.884 24.4851 40.884 20.442C40.884 15.0206 38.7304 9.82127 34.897 5.98768C31.0636 2.15409 25.8644 0.000265232 20.443 2.44708e-08V2.44708e-08Z" fill="#97999D"/>
<path d="M17.7282 14.2663C18.4975 14.2663 19.2671 14.2729 20.0368 14.2627C20.3087 14.2594 20.4755 14.384 20.5856 14.6161C20.7289 14.9175 20.7621 15.2453 20.8012 15.5694C20.8158 15.6917 20.7386 15.7144 20.6383 15.7137C20.2426 15.7121 19.8472 15.7137 19.4515 15.7137C18.9258 15.7137 18.4001 15.7173 17.8744 15.7114C17.735 15.7098 17.6842 15.7548 17.6846 15.8995C17.6885 17.1957 17.6865 18.4922 17.6872 19.7884C17.6872 19.9705 17.7152 19.9755 17.9217 19.9666C18.7499 19.9317 19.5782 19.9189 20.4061 19.9702C20.6015 19.9824 20.7377 20.0915 20.8429 20.2477C21.0126 20.5008 21.065 20.7917 21.0963 21.0866C21.1357 21.4558 21.1308 21.4561 20.7647 21.4561C19.8202 21.4561 18.8786 21.4604 17.9357 21.4525C17.7601 21.4508 17.6784 21.4972 17.6377 21.6806C17.4992 22.3052 17.3409 22.9246 17.1914 23.5465C17.1807 23.5912 17.1416 23.6514 17.1937 23.681C17.2458 23.7106 17.2761 23.6442 17.3107 23.6152C17.4872 23.462 17.665 23.3102 17.8357 23.1504C17.9109 23.0797 17.9607 23.0896 18.022 23.1629C18.406 23.6231 18.7945 24.0781 19.1763 24.5396C19.4401 24.8582 19.687 25.1919 19.9579 25.5045C20.1983 25.7826 20.2719 26.109 20.2836 26.4598C20.296 26.9736 20.2651 27.4875 20.1915 27.996C20.1853 28.042 20.2025 28.1091 20.1423 28.1219C20.0892 28.1327 20.0631 28.0732 20.0332 28.0358L17.1344 24.3894C17.1048 24.3523 17.0843 24.2878 17.0328 24.2944C16.9765 24.3016 16.9846 24.3723 16.9706 24.416C16.7035 25.2612 16.398 26.0926 15.9994 26.8832C15.7655 27.3477 15.4958 27.7895 15.1545 28.183C14.8132 28.5765 14.3611 28.7843 13.8693 28.9063C13.283 29.0532 12.6984 29.0177 12.1213 28.8454C12.077 28.8323 12.0112 28.8339 12.0011 28.7797C11.991 28.7254 12.0538 28.7037 12.0907 28.6748C13.043 27.921 13.9045 27.0808 14.6064 26.0827C15.0021 25.5209 15.2806 24.8993 15.5125 24.2543C15.8113 23.4209 16.0384 22.563 16.1912 21.6902C16.2238 21.508 16.2121 21.4913 16.0261 21.4913C14.8664 21.4913 13.7067 21.4913 12.547 21.4913C12.305 21.4913 12.3027 21.4886 12.3636 21.2523C12.4457 20.9341 12.5427 20.6208 12.717 20.3394C12.8508 20.1234 13.0244 20.0106 13.3006 19.9991C13.8589 19.9765 14.4168 19.9781 14.9741 19.9863C15.3258 19.9916 15.6776 20.0054 16.0293 20.0113C16.1694 20.0139 16.2205 19.9669 16.2196 19.8226C16.2134 18.8328 16.2225 17.8426 16.2065 16.8528C16.201 16.5198 16.1863 16.1865 16.186 15.8531C16.186 15.74 16.1534 15.6763 16.0287 15.6838C15.6292 15.7077 15.2293 15.7296 14.8291 15.7496C14.722 15.7548 14.7018 15.8337 14.6741 15.9116C14.4878 16.4379 14.2155 16.9143 13.7941 17.2871C13.4293 17.6099 13.0257 17.8601 12.5141 17.8485C12.3235 17.8443 12.3037 17.8157 12.3708 17.6316C12.8877 16.1983 13.4246 14.7723 13.9813 13.3537C14.3132 12.5109 14.9356 12.1358 15.7672 12.0076C15.9372 11.9816 15.9626 12.0184 15.9007 12.1828C15.6675 12.8126 15.4331 13.4421 15.1975 14.071C15.1324 14.2456 15.1451 14.265 15.3382 14.2653C16.1349 14.2673 16.9315 14.2676 17.7282 14.2663Z" fill="#97999D"/>
<path d="M28.9991 20.6206C28.9991 22.6384 28.9991 24.6563 28.9991 26.6743C28.9991 27.0803 29.035 27.0385 28.6457 27.0392C27.7791 27.0392 26.912 27.0411 26.045 27.0375C25.9209 27.0351 25.7995 27.075 25.7004 27.1506C25.0552 27.6214 24.4035 28.0829 23.7583 28.5543C23.6423 28.6391 23.599 28.622 23.5629 28.4886C23.4437 28.0566 23.314 27.6276 23.1958 27.1956C23.1632 27.0806 23.1079 27.0362 22.9903 27.0385C22.6923 27.0441 22.3943 27.0408 22.0962 27.0385C21.8832 27.0385 21.8761 27.0313 21.8764 26.8179C21.8764 25.2594 21.8585 23.7005 21.8839 22.1423C21.9256 19.589 21.8917 17.0357 21.9086 14.4828C21.9106 14.1655 21.9086 14.1655 22.2291 14.1655H28.7461C28.9985 14.1655 28.9991 14.1655 28.9991 14.419V20.6206ZM23.4091 20.6206C23.4091 22.2062 23.4082 23.7918 23.4062 25.3774C23.4062 25.5391 23.4495 25.6164 23.6166 25.5934C23.7541 25.5743 23.8192 25.6381 23.855 25.7735C23.9485 26.1272 24.0576 26.4767 24.1586 26.8284C24.2237 27.05 24.2322 27.0536 24.4165 26.909C24.9295 26.5066 25.4441 26.1062 25.9551 25.7012C26.0477 25.6252 26.1646 25.5861 26.2838 25.5911C26.6358 25.5967 26.9879 25.5934 27.34 25.5927C27.5612 25.5927 27.5641 25.5894 27.5641 25.3606C27.5641 22.2002 27.5641 19.0398 27.5641 15.8796C27.5641 15.6494 27.5641 15.6494 27.3387 15.6494C26.1037 15.6494 24.8686 15.6494 23.6335 15.6494C23.4101 15.6494 23.4091 15.6494 23.4091 15.8796C23.4089 17.4592 23.4089 19.0392 23.4091 20.6193V20.6206Z" fill="#97999D"/>
</svg>
