<svg width="101" height="28" viewBox="0 0 101 28" fill="none" xmlns="http://www.w3.org/2000/svg">
<path fill-rule="evenodd" clip-rule="evenodd" d="M40.1724 22.7408C40.3223 22.999 40.3223 23.321 40.1724 23.5792C40.0226 23.8406 39.7484 24 39.4487 24H26.5789C26.2792 24 26.0019 23.8374 25.852 23.5792L20.1456 13.6805L14.4359 23.5792C14.2861 23.8406 14.0087 24 13.7091 24H0.839233C0.539564 24 0.262211 23.8374 0.112376 23.5792C-0.0374587 23.321 -0.0374587 22.999 0.112376 22.7408L6.51701 11.6371L6.5202 11.6339L6.54889 11.5829H6.55208L6.54889 11.5797L12.9599 0.466404C13.0141 0.354825 13.0938 0.25281 13.199 0.173111C13.5305 -0.0819266 14.0024 -0.0532348 14.302 0.246434C14.3594 0.303818 14.404 0.367577 14.4423 0.434525L20.1424 10.3204L25.8297 0.466404C25.8839 0.354825 25.9636 0.25281 26.0688 0.173111C26.4004 -0.0819266 26.8722 -0.0532348 27.1719 0.246434C27.2293 0.303818 27.2739 0.367577 27.3121 0.434525L33.7359 11.5797C33.7391 11.5797 33.7391 11.5829 33.7391 11.5829L40.1724 22.7408ZM7.27575 13.6837L2.29295 22.3199H12.2554L7.27575 13.6837ZM8.2417 12.0005L13.7091 21.4783L19.1764 12.0005L13.7091 2.52264L8.2417 12.0005ZM26.5789 2.52264L21.1115 12.0005L26.5789 21.4783L32.0463 12.0005L26.5789 2.52264ZM33.0154 13.6837L28.0326 22.3199H37.995L33.0154 13.6837Z" fill="#E8471C"/>
<path fill-rule="evenodd" clip-rule="evenodd" d="M89.8179 10.6615V14.414H92.7123C92.0439 15.5876 90.8844 16.5264 88.8212 17.2103C89.3094 17.6449 89.9255 18.4736 90.1608 19.0503C91.9712 18.4012 93.2179 17.5522 94.0868 16.5409C94.1042 18.3983 94.575 19.03 96.6382 19.03H98.5387C100.003 19.03 100.619 18.5432 100.892 16.793C100.259 16.6481 99.3 16.3062 98.8467 15.9816C98.7915 16.8307 98.684 16.9553 98.2859 16.9553H97.0014C96.4958 16.9553 96.4057 16.9205 96.4057 16.396V14.414H97.5448L96.551 15.1906C97.1118 15.5702 97.7802 16.1642 98.0882 16.5786L99.5354 15.405C99.2826 15.0979 98.8293 14.7183 98.3963 14.414H99.826V9.30833H96.984C97.4548 8.65926 97.8703 7.97251 98.1783 7.37849L96.4406 6.36721L96.0599 6.45704H93.8892C93.9967 6.2571 94.1071 6.04267 94.1972 5.84273L91.6458 5.12122C90.9222 6.78158 89.5826 8.42455 88.1528 9.41555C88.6062 9.70531 89.292 10.2298 89.8179 10.6615ZM93.401 12.4291H92.1892V11.2729H93.5811C93.5259 11.6728 93.4736 12.0495 93.401 12.4291ZM96.025 11.2758H97.3095V12.432H95.8623C95.8918 12.2163 95.9222 12.0025 95.953 11.7858C95.9769 11.6182 96.001 11.449 96.025 11.2758ZM92.6948 8.40716H94.6854C94.4878 8.71431 94.2524 9.03885 94.0345 9.30833H91.9887C92.1905 9.05991 92.3923 8.79871 92.5941 8.5375L92.6948 8.40716Z" fill="#E8471C"/>
<path d="M88.6033 8.45933L86.5052 10.0472C86.017 9.18084 84.8226 7.93775 83.8462 7.05106L85.799 5.62541C86.7754 6.41937 88.025 7.59293 88.6033 8.45933Z" fill="#E8471C"/>
<path fill-rule="evenodd" clip-rule="evenodd" d="M64.5188 16.9958C64.7332 16.765 64.9279 16.5005 65.125 16.2327L65.1349 16.2192V21.4148H67.3434V20.1166H70.4557V11.5105H67.416C67.7589 10.4268 68.067 9.30832 68.3024 8.20721H70.7811V5.84272H64.0858V8.20721H65.8585C65.4255 10.392 64.7193 12.4117 63.6674 13.7997C64.0132 14.5763 64.4462 16.2917 64.5188 16.9958ZM67.3434 13.7823H68.2123V17.8419H67.3434V13.7823Z" fill="#E8471C"/>
<path fill-rule="evenodd" clip-rule="evenodd" d="M50.3873 15.9295C50.6401 16.0744 50.9132 16.2366 51.1835 16.3989C52.2151 17.048 53.2641 17.8593 53.7901 18.491L55.6732 16.7032C55.0774 16.0541 53.9732 15.2949 52.9241 14.7183H59.076V5.88041H45.8482V14.7212H51.6746L50.3873 15.9295ZM53.7175 8.13479H56.4694V9.2359H53.7175V8.13479ZM53.7175 11.328H56.4694V12.4639H53.7175V11.328ZM51.166 12.4668H48.324V11.3309H51.166V12.4668ZM51.166 9.2359H48.324V8.13479H51.166V9.2359Z" fill="#E8471C"/>
<path d="M48.5216 19.0155C48.5216 21.2177 49.1551 21.9566 51.7966 21.9566H54.4556C56.5188 21.9566 57.2424 21.2902 57.533 18.6359C56.8268 18.4736 55.6877 18.0767 55.1617 17.6797C55.0542 19.3574 54.9263 19.5921 54.2376 19.5921H52.1395C51.3259 19.5921 51.1806 19.5371 51.1806 18.9778V16.3989H48.5216V19.0155Z" fill="#E8471C"/>
<path d="M58.6023 21.0902C58.3495 19.8819 57.4632 18.0419 56.5391 16.6336L58.89 15.6571C59.849 16.9929 60.8457 18.7257 61.1712 20.0065L58.6023 21.0902Z" fill="#E8471C"/>
<path d="M48.2514 16.5988L45.8627 15.7324C45.482 17.2479 44.7962 18.8011 44 19.8645L46.3712 21.1829C47.2023 19.9717 47.8184 18.1665 48.2514 16.5988Z" fill="#E8471C"/>
<path d="M78.7986 12.9159H80.6613C80.6613 12.9159 80.6265 13.6027 80.5974 13.9098C80.2545 18.6185 79.8738 20.6034 79.2403 21.3075C78.7696 21.8668 78.2988 22.0667 77.6827 22.1565C77.1568 22.229 76.3605 22.2464 75.4917 22.229C75.4539 21.5249 75.1836 20.5339 74.803 19.9022C75.4917 19.9746 76.1252 19.9746 76.4681 19.9746C76.7383 19.9746 76.9214 19.9398 77.119 19.7225C77.4619 19.3806 77.7699 18.0622 78.0227 15.121H71.4728C71.743 13.4607 72.0133 10.8441 72.1411 8.78674L74.6024 8.93162C74.5124 10.195 74.3671 11.6207 74.2218 12.9188H76.3024C76.4826 11.383 76.6453 9.74297 76.7732 8.33471H71.2722V5.9876H77.1887L77.5869 5.89777L79.4496 6.06004C79.3246 8.15215 79.0689 10.6412 78.7986 12.9159Z" fill="#E8471C"/>
<path d="M71.0514 16.509H77.2585V18.8185H71.0514V16.509Z" fill="#E8471C"/>
<path d="M101 19.2676C99.2448 19.5371 96.4232 19.6993 94.7028 19.6993C92.8024 19.6993 91.0646 19.5718 89.8179 18.9952C89.3633 18.7963 89.0084 18.6054 88.7006 18.4397C88.5915 18.381 88.4878 18.3252 88.3882 18.2737V11.6004H83.9363V14.017H85.8717V18.4736C85.1103 18.8358 84.2967 19.3951 83.5556 20.0789L85.1307 22.3333C85.892 21.3597 86.8132 20.2412 87.4467 20.2412C87.7599 20.2412 88.1373 20.4489 88.621 20.7151C88.8644 20.8491 89.1347 20.9978 89.4373 21.1424C90.8292 21.7741 92.442 22.0088 94.6127 22.0088C96.4232 22.0088 99.1722 21.8813 100.314 21.8117C100.349 21.1279 100.73 19.9167 101 19.2676Z" fill="#E8471C"/>
</svg>
