<svg width="101" height="24" viewBox="0 0 101 24" fill="none" xmlns="http://www.w3.org/2000/svg">
<path d="M40.1724 23.5792C40.3222 23.321 40.3222 22.999 40.1724 22.7408L33.7391 11.5829C33.7391 11.5829 33.7391 11.5797 33.7359 11.5797L27.3121 0.434525C27.2739 0.367577 27.2293 0.303818 27.1719 0.246434C26.8722 -0.0532348 26.4004 -0.0819266 26.0688 0.173111C25.9636 0.25281 25.8839 0.354825 25.8297 0.466404L20.1424 10.3204L14.4423 0.434525C14.404 0.367577 14.3594 0.303818 14.302 0.246434C14.0024 -0.0532348 13.5305 -0.0819266 13.199 0.173111C13.0938 0.25281 13.0141 0.354825 12.9599 0.466404L6.54889 11.5797L6.55208 11.5829H6.54889L6.5202 11.6339L6.51701 11.6371L0.112376 22.7408C-0.0374587 22.999 -0.0374587 23.321 0.112376 23.5792C0.262211 23.8374 0.539564 24 0.839233 24H13.7091C14.0087 24 14.2861 23.8406 14.4359 23.5792L20.1456 13.6805L25.852 23.5792C26.0019 23.8374 26.2792 24 26.5789 24H39.4487C39.7484 24 40.0226 23.8406 40.1724 23.5792ZM2.29295 22.3199L7.27575 13.6837L12.2554 22.3199H2.29295ZM13.7091 21.4783L8.2417 12.0005L13.7091 2.52264L19.1764 12.0005L13.7091 21.4783ZM21.1115 12.0005L26.5789 2.52264L32.0463 12.0005L26.5789 21.4783L21.1115 12.0005ZM28.0326 22.3199L33.0154 13.6837L37.995 22.3199H28.0326Z" fill="#E8471C"/>
<path fill-rule="evenodd" clip-rule="evenodd" d="M89.8179 14.414V10.6615C89.292 10.2298 88.6062 9.70531 88.1528 9.41555C89.5826 8.42455 90.9222 6.78158 91.6458 5.12122L94.1972 5.84273C94.1071 6.04267 93.9967 6.2571 93.8892 6.45704H96.0599L96.4406 6.36721L98.1783 7.37849C97.8703 7.97251 97.4548 8.65926 96.984 9.30833H99.826V14.414H98.3963C98.8293 14.7183 99.2826 15.0979 99.5354 15.405L98.0882 16.5786C97.7802 16.1642 97.1119 15.5702 96.551 15.1906L97.5448 14.414H96.4057V16.396C96.4057 16.9205 96.4958 16.9553 97.0014 16.9553H98.2859C98.684 16.9553 98.7915 16.8307 98.8467 15.9816C99.3 16.3062 100.259 16.6481 100.892 16.793C100.619 18.5432 100.003 19.03 98.5387 19.03H96.6382C94.575 19.03 94.1042 18.3983 94.0868 16.5409C93.2179 17.5522 91.9712 18.4012 90.1608 19.0503C89.9255 18.4736 89.3094 17.6449 88.8212 17.2103C90.8844 16.5264 92.0439 15.5876 92.7123 14.414H89.8179ZM92.1892 12.4291H93.401C93.4736 12.0495 93.5259 11.6728 93.5811 11.2729H92.1892V12.4291ZM97.3095 11.2758H96.025C96.001 11.449 95.9769 11.6182 95.953 11.7858C95.9222 12.0025 95.8918 12.2163 95.8623 12.432H97.3095V11.2758ZM94.6854 8.40716H92.6948C92.6612 8.45057 92.6277 8.49404 92.5941 8.5375C92.3923 8.79871 92.1905 9.05991 91.9887 9.30833H94.0345C94.2524 9.03885 94.4878 8.71431 94.6854 8.40716ZM86.5052 10.0472L88.6033 8.45933C88.025 7.59293 86.7754 6.41937 85.799 5.62541L83.8462 7.05106C84.8226 7.93775 86.017 9.18084 86.5052 10.0472ZM65.125 16.2327C64.9279 16.5005 64.7332 16.765 64.5188 16.9958C64.4462 16.2917 64.0132 14.5763 63.6674 13.7997C64.7193 12.4117 65.4255 10.392 65.8585 8.20721H64.0858V5.84272H70.7811V8.20721H68.3024C68.067 9.30832 67.7589 10.4268 67.416 11.5105H70.4557V20.1166H67.3434V21.4148H65.1349V16.2192L65.125 16.2327ZM68.2123 13.7823H67.3434V17.8419H68.2123V13.7823ZM51.1835 16.3989C50.9132 16.2366 50.6401 16.0744 50.3873 15.9295L51.6746 14.7212H45.8482V5.88041H59.076V14.7183H52.9241C53.9732 15.2949 55.0774 16.0541 55.6732 16.7032L53.7901 18.491C53.2641 17.8593 52.2151 17.048 51.1835 16.3989ZM56.4694 8.13479H53.7175V9.2359H56.4694V8.13479ZM56.4694 11.328H53.7175V12.4639H56.4694V11.328ZM48.324 12.4668H51.166V11.3309H48.324V12.4668ZM48.324 9.2359H51.166V8.13479H48.324V9.2359ZM51.7966 21.9566C49.1551 21.9566 48.5216 21.2177 48.5216 19.0155V16.3989H51.1806V18.9778C51.1806 19.5371 51.3259 19.5921 52.1395 19.5921H54.2376C54.9263 19.5921 55.0542 19.3574 55.1617 17.6797C55.6877 18.0767 56.8268 18.4736 57.533 18.6359C57.2424 21.2902 56.5188 21.9566 54.4556 21.9566H51.7966ZM56.5391 16.6336C57.4632 18.0419 58.3495 19.8819 58.6023 21.0902L61.1712 20.0065C60.8457 18.7257 59.849 16.9929 58.89 15.6571L56.5391 16.6336ZM45.8627 15.7324L48.2514 16.5988C47.8184 18.1665 47.2023 19.9717 46.3712 21.1829L44 19.8645C44.7962 18.8011 45.482 17.2479 45.8627 15.7324ZM80.6613 12.9159H78.7986C79.0689 10.6412 79.3246 8.15215 79.4496 6.06004L77.5869 5.89777L77.1887 5.9876H71.2722V8.33471H76.7732C76.6453 9.74297 76.4826 11.383 76.3024 12.9188H74.2218C74.3671 11.6207 74.5124 10.195 74.6025 8.93162L72.1411 8.78674C72.0133 10.8441 71.743 13.4607 71.4728 15.121H78.0227C77.7699 18.0622 77.4619 19.3806 77.119 19.7225C76.9214 19.9398 76.7383 19.9746 76.4681 19.9746C76.1252 19.9746 75.4917 19.9746 74.803 19.9022C75.1836 20.5339 75.4539 21.5249 75.4917 22.229C76.3605 22.2464 77.1568 22.229 77.6827 22.1565C78.2988 22.0667 78.7696 21.8668 79.2403 21.3075C79.8738 20.6034 80.2545 18.6185 80.5974 13.9098C80.6265 13.6027 80.6613 12.9159 80.6613 12.9159ZM77.2585 16.509H71.0514V18.8185H77.2585V16.509ZM94.7028 19.6993C96.4232 19.6993 99.2448 19.5371 101 19.2676C100.73 19.9167 100.349 21.1279 100.314 21.8117C99.1722 21.8813 96.4232 22.0088 94.6128 22.0088C92.442 22.0088 90.8292 21.7741 89.4373 21.1424C89.1347 20.9978 88.8644 20.8491 88.621 20.7151C88.1373 20.4489 87.7599 20.2412 87.4467 20.2412C86.8132 20.2412 85.892 21.3597 85.1307 22.3333L83.5556 20.0789C84.2967 19.3951 85.1103 18.8358 85.8717 18.4736V14.017H83.9363V11.6004H88.3882V18.2737C88.4878 18.3253 88.5911 18.3808 88.7002 18.4395L88.7004 18.4396L88.7004 18.4396L88.7005 18.4397C89.0083 18.6053 89.3633 18.7963 89.818 18.9952C91.0646 19.5718 92.8023 19.6993 94.7028 19.6993Z" fill="#E8471C"/>
</svg>
