<svg width="311" height="103" viewBox="0 0 311 103" fill="none" xmlns="http://www.w3.org/2000/svg">
<path fill-rule="evenodd" clip-rule="evenodd" d="M55.907 17.8037C57.0925 17.8037 58.188 18.4362 58.7808 19.4629L76.4791 50.1173L70.7314 53.4358L55.907 27.7591L41.0825 53.4358L35.3348 50.1173L53.0331 19.4629C53.6259 18.4362 54.7214 17.8037 55.907 17.8037Z" fill="#FF5528"/>
<path fill-rule="evenodd" clip-rule="evenodd" d="M91.3043 17.8037C90.1188 17.8037 89.0232 18.4362 88.4305 19.4629L70.7322 50.1173L76.4799 53.4358L91.3043 27.7591L106.129 53.4358L111.877 50.1173L94.1782 19.4629C93.5854 18.4362 92.4899 17.8037 91.3043 17.8037Z" fill="#FF5528"/>
<path fill-rule="evenodd" clip-rule="evenodd" d="M38.2087 48.4563C39.3942 48.4563 40.4897 49.0888 41.0825 50.1155L58.7808 80.7698C59.3736 81.7966 59.3736 83.0616 58.7808 84.0883C58.188 85.115 57.0925 85.7475 55.907 85.7475H20.5104C19.3248 85.7475 18.2293 85.115 17.6365 84.0883C17.0437 83.0616 17.0437 81.7966 17.6365 80.7698L35.3348 50.1155C35.9276 49.0888 37.0231 48.4563 38.2087 48.4563ZM26.2581 79.1106H50.1592L38.2087 58.4117L26.2581 79.1106Z" fill="#FF5528"/>
<path fill-rule="evenodd" clip-rule="evenodd" d="M109.003 48.4563C107.817 48.4563 106.722 49.0888 106.129 50.1155L88.4304 80.7698C87.8377 81.7966 87.8377 83.0616 88.4304 84.0883C89.0232 85.115 90.1187 85.7475 91.3043 85.7475H126.701C127.886 85.7475 128.982 85.115 129.575 84.0883C130.168 83.0616 130.168 81.7966 129.575 80.7698L111.876 50.1155C111.284 49.0888 110.188 48.4563 109.003 48.4563ZM120.953 79.1106H97.0521L109.003 58.4117L120.953 79.1106Z" fill="#FF5528"/>
<path fill-rule="evenodd" clip-rule="evenodd" d="M55.907 85.7506C57.0925 85.7506 58.188 85.1181 58.7808 84.0914L76.4791 53.437L70.7314 50.1186L55.907 75.7952L41.0825 50.1186L35.3348 53.437L53.0331 84.0914C53.6259 85.1181 54.7214 85.7506 55.907 85.7506Z" fill="#FF5528"/>
<path fill-rule="evenodd" clip-rule="evenodd" d="M91.3043 85.7506C90.1188 85.7506 89.0232 85.1181 88.4305 84.0914L70.7322 53.437L76.4799 50.1186L91.3043 75.7952L106.129 50.1186L111.877 53.437L94.1782 84.0914C93.5854 85.1181 92.4899 85.7506 91.3043 85.7506Z" fill="#FF5528"/>
<path d="M162.795 59.9352C166.509 61.9455 167.797 63.493 169.862 65.7634L174.038 61.7401C171.771 59.4203 170.325 58.1303 166.663 56.3254L162.795 59.9352ZM178.215 59.2642C181 63.2875 183.734 68.5982 184.662 72.1065L190.334 69.6307C189.302 66.0209 186.311 60.9677 183.476 57.0978L178.215 59.2642ZM147.943 57.4593C146.861 61.6881 144.9 66.4318 142.476 69.5266L147.737 72.416C150.213 69.0117 152.018 63.753 153.256 59.3682L147.945 57.4593H147.943ZM153.152 43.7405H178.834V48.5363H153.152V43.7405ZM153.152 34.3025H178.834V38.9968H153.152V34.3051V34.3025ZM147.633 29.252V53.592H184.662V29.252H147.633ZM163.31 31.4704V51.4777H168.983V31.4678H163.31V31.4704Z" fill="#FF5528"/>
<path d="M216.945 37.5092C216.584 43.0279 216.121 49.9302 215.398 54.4165H220.917C221.536 50.1357 221.949 43.3868 222.412 37.8187L216.945 37.5092ZM216.945 49.4673V54.4191H237.007V49.4673H216.945ZM213.645 59.6777V64.8349H232.263V59.6777H213.645ZM231.54 29.252V29.6759C231.179 34.9813 230.198 45.1709 229.221 52.5986L234.739 53.0771C235.72 45.6469 236.7 36.2557 237.163 29.252H231.543H231.54ZM194.41 29.252V34.7161H212.873V29.252H194.41ZM215.25 29.252V34.7161H233.712V29.252H215.25ZM200.033 45.4466V50.5518H206.633V63.9091H200.033V69.0143H211.689V45.444H200.033V45.4466ZM200.496 32.1413C199.206 40.0839 196.938 47.613 193.224 52.5648C194.049 54.2162 195.133 57.8754 195.391 59.4229C200.652 53.0797 203.848 43.1268 205.809 33.3273L200.496 32.1413ZM197.557 45.4466V69.0143H202.509V45.444H197.557V45.4466Z" fill="#FF5528"/>
<path d="M267.794 43.4332H284.555V48.385H267.794V43.4332ZM262.483 38.947V52.9233H290.178V38.9444H262.483V38.947ZM268.103 26.9811C265.885 32.0863 261.966 37.0901 257.737 40.2344C259.076 41.0588 261.399 42.8637 262.429 43.8962C266.657 40.3384 271.042 34.5622 273.776 28.63L268.103 26.9785V26.9811ZM273.932 40.2344C273.261 50.4448 271.971 58.4914 259.492 62.6681C260.626 63.6486 262.02 65.5055 262.535 66.7929C276.407 61.7917 278.522 52.3537 279.45 40.2344H273.932ZM279.294 30.9524V31.9849C278.366 34.0993 276.147 37.605 274.137 39.7194C275.476 40.4424 277.489 41.6283 278.623 42.4528C280.842 39.9769 283.624 36.1616 285.224 33.0148L281.357 30.7444L280.48 30.9498H279.294V30.9524ZM281.255 55.2951C283.06 56.5851 285.122 58.5954 286.051 59.9868L289.819 56.3328C288.787 54.9934 286.672 53.0845 284.868 51.8986L281.255 55.2951ZM268.98 30.9524L265.937 35.4386H280.995V30.9524H268.98ZM257.635 42.7389H245.878V48.1015H252.067V66.2779H257.638V42.7389H257.635ZM254.671 65.3495C251.732 65.3495 248.715 66.6394 245.053 70.0932L248.611 75.0449C251.035 72.1061 253.979 70.7824 255.833 70.7824C257.123 70.7824 259.492 71.2687 261.864 72.5066C265.927 74.0801 269.188 74.2725 275.375 74.2725H292.29C292.342 72.6731 293.218 69.4768 293.837 68.0334C288.836 68.7044 280.946 69.1153 275.531 69.1153C270.116 69.1153 265.321 68.7538 261.864 67.0009C258.821 65.5575 256.476 65.3495 254.671 65.3495Z" fill="#FF5528"/>
<path d="M253.157 38.2787C255.659 38.2787 257.687 36.2503 257.687 33.7482C257.687 31.2461 255.659 29.2178 253.157 29.2178C250.655 29.2178 248.626 31.2461 248.626 33.7482C248.626 36.2503 250.655 38.2787 253.157 38.2787Z" fill="#FF5528"/>
<path d="M227.582 73.394C234.329 76.8868 238.094 74.5331 238.682 69.1991C239.46 62.1537 240.841 49.4648 240.841 49.4648H235.449L233.78 65.4306C233.33 69.5034 233.213 71.662 227.299 68.939L227.585 73.3914L227.582 73.394Z" fill="#FF5528"/>
<path d="M179.729 63.7517L175.073 62.9793C177.133 69.156 174.975 69.0389 170.876 69.0389H162.416C161.675 69.0389 161.071 68.4382 161.071 67.6944V58.6465H155.11V69.0493C155.11 71.9621 157.472 74.3236 160.385 74.3236H174.345C179.711 74.3236 182.462 70.8386 179.731 63.7517H179.729Z" fill="#FF5528"/>
<path d="M293.047 60.0056C291.188 59.6363 290.293 59.3632 288.876 58.4192C289.705 62.1096 287.843 62.0316 284.652 62.0316H281.399C280.738 62.0316 280.205 61.4958 280.205 60.8378V50.5H274.962V62.185C274.962 64.6895 276.702 66.7181 280.015 66.7181H287.497C291.526 66.7181 293.89 64.5023 293.05 60.0082L293.047 60.0056Z" fill="#FF5528"/>
</svg>
