<svg width="119" height="28" viewBox="0 0 119 28" fill="none" xmlns="http://www.w3.org/2000/svg">
<path d="M40.1724 23.5792C40.3222 23.321 40.3222 22.999 40.1724 22.7408L33.7391 11.5829C33.7391 11.5829 33.7391 11.5797 33.7359 11.5797L27.3121 0.434525C27.2739 0.367577 27.2293 0.303818 27.1719 0.246434C26.8722 -0.0532349 26.4004 -0.0819266 26.0688 0.173111C25.9636 0.25281 25.8839 0.354825 25.8297 0.466404L20.1424 10.3204L14.4423 0.434525C14.404 0.367577 14.3594 0.303818 14.302 0.246434C14.0024 -0.0532349 13.5305 -0.0819266 13.199 0.173111C13.0938 0.25281 13.0141 0.354825 12.9599 0.466404L6.54889 11.5797L6.55208 11.5829H6.54889L6.5202 11.6339L6.51701 11.6371L0.112376 22.7408C-0.0374587 22.999 -0.0374587 23.321 0.112376 23.5792C0.262211 23.8374 0.539564 24 0.839233 24H13.7091C14.0087 24 14.2861 23.8406 14.4359 23.5792L20.1456 13.6805L25.852 23.5792C26.0019 23.8374 26.2792 24 26.5789 24H39.4487C39.7484 24 40.0226 23.8406 40.1724 23.5792ZM2.29295 22.3199L7.27575 13.6837L12.2554 22.3199H2.29295ZM13.7091 21.4783L8.2417 12.0005L13.7091 2.52264L19.1764 12.0005L13.7091 21.4783ZM21.1115 12.0005L26.5789 2.52264L32.0463 12.0005L26.5789 21.4783L21.1115 12.0005ZM28.0326 22.3199L33.0154 13.6837L37.995 22.3199H28.0326Z" fill="#E8471C"/>
<path fill-rule="evenodd" clip-rule="evenodd" d="M55.6767 8.37903C54.587 8.37903 53.8743 8.78948 53.189 9.52964C52.6887 8.7693 52.0239 8.37903 50.9343 8.37903C49.9885 8.37903 49.2964 8.80967 48.7961 9.50946V8.64818H46V21.2376H48.7961V12.5576C48.7961 11.5012 49.2484 11.0436 49.8378 11.0436C50.434 11.0436 50.7835 11.5012 50.7835 12.5576V21.2376H53.559V12.5576C53.559 11.5012 54.0319 11.0436 54.6281 11.0436C55.2244 11.0436 55.5533 11.5012 55.5533 12.5576V21.2376H58.3563V11.952C58.3563 9.43544 57.3626 8.37903 55.6767 8.37903Z" fill="#E8471C"/>
<path fill-rule="evenodd" clip-rule="evenodd" d="M66.5801 8.38575C63.3111 8.38575 60.7686 10.7139 60.7686 14.9059C60.7686 19.1517 63.2563 21.5 66.6486 21.5C68.6908 21.5 69.945 21.0425 71.5075 20.1812L70.2739 17.7858C69.0609 18.3846 68.2317 18.7211 66.861 18.7211C65.2711 18.7211 64.2294 17.6916 64.0649 15.9892H72.1243C72.1517 15.7739 72.1517 15.5316 72.1517 15.101C72.1585 10.8014 70.0683 8.38575 66.5801 8.38575ZM64.0718 13.7351C64.2637 12.0327 65.0929 11.0503 66.5115 11.0503C68.2385 11.0503 68.8827 12.0596 69.0472 13.7351H64.0718Z" fill="#E8471C"/>
<path fill-rule="evenodd" clip-rule="evenodd" d="M78.0522 10.1083V8.64818H74.6873V21.2376H78.0522V14.5695C78.0522 12.6989 79.0254 11.5012 80.5879 11.5012C81.6776 11.5012 82.3218 11.8847 82.9591 12.4365L84.0282 9.05864C83.48 8.6751 82.6302 8.38576 81.4651 8.38576C80.0876 8.37904 78.8541 9.07882 78.0522 10.1083Z" fill="#E8471C"/>
<path fill-rule="evenodd" clip-rule="evenodd" d="M88.6267 7.01311C89.8808 7.01311 90.6895 6.17202 90.6895 5.11561C90.6895 4.06593 89.8808 3.25176 88.6267 3.25176C87.3452 3.25176 86.5365 4.06593 86.5365 5.12234C86.5365 6.17875 87.3452 7.01311 88.6267 7.01311Z" fill="#E8471C"/>
<path fill-rule="evenodd" clip-rule="evenodd" d="M90.2851 17.0187V8.6482H86.8928V17.6176C86.8928 20.2081 88.2223 21.5001 90.6415 21.5001C91.7791 21.5001 92.8482 21.2107 93.5815 20.8743L94.0818 18.0953C93.4856 18.3376 92.7523 18.5731 91.8271 18.5731C90.9019 18.5731 90.2851 18.2164 90.2851 17.0187Z" fill="#E8471C"/>
<path fill-rule="evenodd" clip-rule="evenodd" d="M101.408 18.6942C99.537 18.6942 98.6118 17.2071 98.6118 14.9328C98.6118 12.7527 99.633 11.1916 101.291 11.1916C102.546 11.1916 103.162 11.7165 103.902 12.6518L106.157 10.5861C104.972 9.17302 103.526 8.37903 101.415 8.37903C97.6661 8.37903 95.199 10.9696 95.199 14.8992C95.199 19.0979 97.762 21.4933 101.291 21.4933C103.45 21.4933 105.013 20.5311 106.226 19.0441L104.211 17.0793C103.402 18.0684 102.546 18.6942 101.408 18.6942Z" fill="#E8471C"/>
<path fill-rule="evenodd" clip-rule="evenodd" d="M113.161 8.38575C109.913 8.38575 107.329 10.5659 107.329 14.9328C107.329 19.2526 109.892 21.5 113.141 21.5C116.389 21.5 119 19.2257 119 14.9059C118.993 10.5659 116.41 8.38575 113.161 8.38575ZM113.161 18.6672C111.667 18.6672 110.742 17.4426 110.742 14.9261C110.742 12.3624 111.667 11.2118 113.161 11.2118C114.655 11.2118 115.58 12.3624 115.58 14.9261C115.58 17.4493 114.655 18.6672 113.161 18.6672Z" fill="#E8471C"/>
</svg>
